<svg width="120" height="130" viewBox="0 0 120 130" fill="none" xmlns="http://www.w3.org/2000/svg">
<circle cx="68.125" cy="59.375" r="51.875" fill="white"/>
<circle cx="30.625" cy="99.375" r="30.625" fill="#F9D52E"/>
<path d="M16.2005 106.999C16.2005 106.54 16.2005 105.975 16.0123 105.411C15.6151 104.323 14.8833 103.654 13.8171 103.466C13.5453 103.424 13.2735 103.383 13.0018 103.362L12.5 103.299L13.2108 103.215C13.5244 103.174 13.838 103.132 14.1516 103.069C15.0297 102.902 15.5733 102.337 15.6778 101.501C15.7405 101.041 15.7823 100.581 15.8241 100.1L15.8659 100.435C15.9078 100.665 15.9287 100.895 15.9914 101.125C16.2841 102.379 16.9949 102.985 18.2702 103.111C18.2702 103.111 19.441 103.195 19.6918 103.215C19.8591 103.215 20.0263 103.278 20.1309 103.341C20.0054 103.32 19.8591 103.299 19.7127 103.299C19.3991 103.299 19.0855 103.362 18.772 103.404L18.5002 103.445C17.413 103.634 16.7022 104.323 16.4513 105.411C16.3677 105.745 16.3259 106.08 16.2841 106.414C16.2841 106.414 16.2214 106.853 16.2214 106.958L16.2005 106.999Z" fill="#00003D"/>
<path d="M24.3961 94.163C23.8525 94.163 23.2671 93.6612 23.2253 93.1594C23.2044 92.9504 23.3089 92.6786 23.4762 92.4695C23.7062 92.1768 24.0407 91.9887 24.3752 91.9678C25.0233 91.9678 25.4832 92.3859 25.5041 92.9086C25.525 93.5358 25.0233 94.1211 24.417 94.142H24.3752L24.3961 94.163Z" fill="#00003D"/>
<path d="M19.191 125C18.6474 125 18.062 124.498 18.0202 123.997C17.9993 123.788 18.1039 123.516 18.2711 123.307C18.5011 123.014 18.8356 122.826 19.1701 122.805C19.8182 122.805 20.2781 123.223 20.299 123.767C20.3199 124.394 19.8182 124.979 19.2119 125H19.1701H19.191Z" fill="#00003D"/>
<path d="M94.4739 38.008C94.4739 37.548 94.4948 36.9836 94.2857 36.3982C93.8885 35.311 93.1568 34.642 92.0905 34.4539C91.8397 34.4121 91.5888 34.3702 91.3379 34.3493L90.7734 34.2866C90.7943 34.2866 91.5052 34.1821 91.5052 34.1821C91.8188 34.1403 92.1115 34.0985 92.4251 34.0357C93.3031 33.8685 93.8467 33.304 93.9512 32.4678C94.0139 32.0078 94.0558 31.5479 94.0767 31.067L94.1394 31.4433C94.1603 31.6733 94.2021 31.8824 94.2648 32.1123C94.5575 33.3667 95.2683 33.973 96.5436 34.0985L97.2126 34.1403C97.4635 34.1403 97.7144 34.1821 97.9653 34.203C98.1325 34.203 98.2998 34.2657 98.4043 34.3284C98.2789 34.3075 98.1325 34.2866 97.9862 34.2866C97.6517 34.2866 97.3172 34.3493 96.9827 34.4121L96.7527 34.4539C95.6656 34.642 94.9547 35.3319 94.683 36.4191C94.5993 36.7536 94.5575 37.109 94.5157 37.4644C94.4739 37.7153 94.4739 37.8825 94.453 38.008H94.4739Z" fill="#00003D"/>
<path d="M98.8023 50.9491C98.2587 50.9491 97.6734 50.4473 97.6316 49.9456C97.6107 49.7365 97.7152 49.4647 97.8824 49.2557C98.1124 48.963 98.4469 48.7748 98.7814 48.7539C99.4295 48.7539 99.8895 49.172 99.9104 49.7156C99.9313 50.3428 99.4295 50.9282 98.8232 50.9491H98.7814H98.8023Z" fill="#00003D"/>
<path d="M106.328 26.6558C105.784 26.6558 105.199 26.154 105.157 25.6522C105.136 25.4432 105.241 25.1714 105.408 24.9623C105.638 24.6696 105.972 24.4815 106.307 24.4606C106.955 24.4606 107.415 24.8787 107.436 25.4223C107.457 26.0495 106.955 26.6348 106.349 26.6558H106.307H106.328Z" fill="#00003D"/>
<path d="M36.6058 111.139C31.9018 109.947 31.0028 109.048 29.5812 104.324L29.3721 103.592L29.184 104.324C27.9923 109.007 27.0933 109.926 22.3684 111.348L21.6367 111.557L22.3684 111.745C27.0933 112.958 27.9714 113.836 29.184 118.561C29.2258 118.707 29.3512 118.791 29.4976 118.791H29.5603L29.7694 118.624V118.561C30.9819 113.878 31.8809 112.958 36.6058 111.536L37.3375 111.327L36.6058 111.139ZM29.6857 106.247C30.6474 109.216 31.7137 110.282 34.6824 111.244L35.3096 111.453L34.6824 111.662C31.7137 112.623 30.6474 113.69 29.6857 116.658L29.4767 117.286L29.2676 116.658C28.3059 113.69 27.2397 112.623 24.2709 111.662L23.6437 111.453L24.2709 111.244C27.2397 110.282 28.3059 109.216 29.2676 106.247L29.4767 105.62L29.6648 106.247H29.6857Z" fill="#00003D"/>
<path d="M52.2862 96.5253C52.098 96.5253 51.9308 96.4626 51.8053 96.3371C51.6799 96.2117 51.6172 96.0444 51.6172 95.8563V88.3926C51.6172 88.2045 51.6799 88.0372 51.8053 87.9118C51.9308 87.7864 52.098 87.7236 52.2862 87.7236H54.3978C55.5267 87.7236 56.5302 88.2045 57.1783 89.0826C57.7637 89.8561 58.0773 90.9223 58.0773 92.114C58.0773 94.6228 56.5511 96.4626 54.4605 96.5044C53.8542 96.5044 52.3489 96.5044 52.2862 96.5044V96.5253ZM52.9343 95.1873H54.4187C56.0076 95.1454 56.7184 93.6193 56.7184 92.1349C56.7184 91.2359 56.4884 90.4415 56.0912 89.8979C55.6731 89.3543 55.1086 89.0616 54.3768 89.0616H52.9343V95.1873Z" fill="#00003D"/>
<path d="M75.0932 82.6225C71.3719 82.6225 68.3613 79.5911 68.3613 75.8906V66.19C68.3613 62.4687 71.3928 59.4581 75.0932 59.4581C78.7937 59.4581 81.8251 62.4896 81.8251 66.19V75.8906C81.8251 79.612 78.8146 82.6225 75.0932 82.6225ZM75.0932 60.7961C72.1245 60.7961 69.6993 63.2213 69.6993 66.19V75.8906C69.6993 78.8594 72.1245 81.2845 75.0932 81.2845C78.0619 81.2845 80.4871 78.8594 80.4871 75.8906V66.19C80.4871 63.2213 78.0619 60.7961 75.0932 60.7961Z" fill="#00003D"/>
<path d="M71.1632 96.6299C70.9751 96.6299 70.8078 96.5672 70.6824 96.4418C70.5569 96.3163 70.4942 96.1491 70.4942 95.9818V92.2605L68.1527 88.6646C67.9436 88.351 68.0482 87.9328 68.3408 87.7447C68.4454 87.682 68.5708 87.6401 68.6963 87.6401C68.9262 87.6401 69.1353 87.7447 69.2607 87.9328L71.1632 90.8388L73.0448 87.9537C73.1702 87.7656 73.3793 87.6401 73.6093 87.6401C73.7347 87.6401 73.8602 87.682 73.9647 87.7447C74.111 87.8492 74.2156 87.9955 74.2574 88.1628C74.2992 88.3301 74.2574 88.5182 74.1738 88.6646L71.8531 92.2396V95.9609C71.8531 96.3372 71.5395 96.6299 71.1841 96.6299H71.1632Z" fill="#00003D"/>
<path d="M79.4844 96.6298C78.251 96.6298 77.1011 96.1281 76.3067 95.2709C76.0558 94.9991 76.0767 94.581 76.3485 94.3301C76.4739 94.2256 76.6203 94.1629 76.7875 94.1629C76.9757 94.1629 77.1638 94.2465 77.2893 94.3719C77.8119 94.9573 78.6273 95.2918 79.4844 95.2918C80.3834 95.2918 81.0106 94.7274 81.1152 94.1838C81.2197 93.6402 80.7806 93.1385 79.9235 92.804C78.8572 92.4067 77.9165 92.0095 77.6865 91.905C76.8293 91.3614 76.4739 90.5461 76.5993 89.7098C76.7248 88.7899 77.3938 88.0582 78.3555 87.7655C78.69 87.661 79.0245 87.6191 79.359 87.6191C80.8434 87.6191 81.9305 88.5181 81.9723 88.5599C82.1187 88.6645 82.2023 88.8317 82.2023 89.0199C82.2023 89.1871 82.1605 89.3753 82.0559 89.5007C81.9305 89.6471 81.7423 89.7307 81.5542 89.7307C81.4078 89.7307 81.2406 89.668 81.1361 89.5843C80.9897 89.4798 80.258 88.9572 79.3799 88.9572C79.1708 88.9572 78.9409 88.9781 78.7527 89.0408C78.0837 89.2498 77.9583 89.7516 77.9374 89.8979C77.8955 90.1906 78.0001 90.4624 78.2091 90.6506C78.6064 90.8387 79.4635 91.2151 80.4043 91.5705C82.1814 92.2186 82.6204 93.473 82.4532 94.4347C82.2232 95.71 80.9897 96.6508 79.5053 96.6508L79.4844 96.6298Z" fill="#00003D"/>
<path d="M66.586 96.6299C66.3142 96.6299 66.0634 96.4626 65.9588 96.1908L65.4153 94.7274H61.6939L61.1294 96.1908C61.0249 96.4417 60.774 96.6299 60.5022 96.6299C60.4186 96.6299 60.335 96.6299 60.2723 96.5881C59.9377 96.4626 59.7496 96.0654 59.875 95.7309L62.7601 88.1418C62.9065 87.8073 63.1992 87.5983 63.5546 87.5983C63.91 87.5983 64.2027 87.8073 64.3281 88.1209L67.1923 95.71C67.255 95.8772 67.255 96.0654 67.1923 96.2326C67.1087 96.3999 66.9832 96.5253 66.816 96.5881C66.7324 96.609 66.6487 96.6299 66.586 96.6299ZM62.1957 93.4103H64.8926L63.5546 89.8353L62.1957 93.4103Z" fill="#00003D"/>
<path d="M58.5784 82.3507C55.5051 82.3507 52.8709 80.051 52.4319 77.0196C52.39 76.7478 52.3691 76.4551 52.3691 76.1624C52.3691 75.7861 52.6618 75.4934 53.0381 75.4934C53.4145 75.4934 53.7072 75.7861 53.7072 76.1624C53.7072 76.3924 53.7072 76.6223 53.749 76.8314C54.0835 79.2147 56.1532 81.0127 58.5575 81.0127C61.2335 81.0127 63.4287 78.8384 63.4287 76.1415C63.4287 73.4445 61.2544 71.2703 58.5575 71.2703C58.1812 71.2703 57.8885 70.9776 57.8885 70.6013C57.8885 70.2249 58.1812 69.9323 58.5575 69.9323C61.0662 69.9323 63.1151 67.8834 63.1151 65.3746C63.1151 62.8659 61.0662 60.817 58.5575 60.817C56.3832 60.817 54.5016 62.3641 54.0835 64.4966C54.0208 64.8102 53.749 65.0401 53.4354 65.0401C53.1218 64.9983 52.9754 64.8938 52.8709 64.7474C52.7664 64.6011 52.7455 64.4129 52.7664 64.2457C53.3099 61.486 55.7351 59.479 58.5575 59.479C61.8189 59.479 64.4531 62.1341 64.4531 65.3746C64.4531 67.3189 63.4914 69.1169 61.9025 70.2249L61.3798 70.5804L61.9025 70.9149C63.6796 72.0647 64.7458 74.009 64.7458 76.1206C64.7458 79.5492 61.9652 82.3298 58.5366 82.3298L58.5784 82.3507Z" fill="#00003D"/>
<path d="M99.2202 95.2291C99.2202 95.2291 99.0111 95.2082 98.9275 95.1664C98.593 94.9991 98.4676 94.6019 98.6348 94.2674C101.645 88.2463 102.837 81.4726 102.105 74.6571C100.328 58.2037 87.0735 45.0744 70.5783 43.4437C69.4284 43.3392 68.2577 43.2764 67.0869 43.2764C58.118 43.2764 49.5881 46.6215 43.0235 52.7053C42.8981 52.8098 42.7308 52.8725 42.5636 52.8725C42.3963 52.8725 42.2291 52.8098 42.1036 52.6844L40.452 51.1164H40.2429L40.0339 51.1582L39.783 51.4509L36.7934 61.2351L36.9815 61.486L37.107 61.6114H37.3369L40.222 60.6079C40.3057 60.587 40.3684 60.5661 40.452 60.5661C40.7238 60.5661 40.9747 60.7334 41.0792 61.0052C41.2046 61.3606 41.0165 61.7369 40.682 61.8623L37.9641 62.8449C37.7551 62.9286 37.546 62.9495 37.3369 62.9495C36.877 62.9495 36.417 62.7613 36.0825 62.4477C35.5808 61.9669 35.3926 61.256 35.6017 60.587L38.5077 51.0328C38.6959 50.4265 39.1767 49.9665 39.783 49.7993C39.9293 49.7575 40.0966 49.7366 40.2638 49.7366C40.7238 49.7366 41.1837 49.9247 41.5182 50.2383L42.6054 51.2627L42.8981 51.0118C45.8668 48.3985 49.2745 46.287 53.0377 44.719L53.6231 44.489L50.6126 41.4576C50.508 41.353 50.4662 41.2067 50.4871 41.0603C50.508 40.914 50.5917 40.7886 50.738 40.7258C51.6997 40.2241 52.6823 39.7641 53.7276 39.3251L54.2503 39.116L46.5567 29.7499L46.4104 29.5409V29.3318L46.4731 29.1436L55.6092 18.335C55.6928 18.2304 55.8183 18.1677 55.9646 18.1677H78.8782C79.0245 18.1677 79.129 18.2304 79.2127 18.3141L88.307 29.06L88.4324 29.2273C88.4324 29.2273 88.4742 29.4572 88.4324 29.5618L80.5925 39.116L81.1152 39.3251C82.2023 39.7851 83.1849 40.245 84.1257 40.7258C84.2511 40.7886 84.3557 40.914 84.3766 41.0603C84.3766 41.2067 84.3348 41.353 84.2302 41.4576L81.1152 44.5726L81.5751 44.9071C93.68 50.1547 102.063 61.486 103.464 74.4689C104.217 81.5144 102.983 88.5599 99.8683 94.811C99.7638 95.0409 99.5338 95.1873 99.262 95.1873L99.2202 95.2291ZM61.1704 38.1125C60.7104 38.1962 60.2296 38.3007 59.7696 38.4052C59.1006 38.5516 58.5989 38.677 58.118 38.8234C57.7208 38.9279 57.3236 39.0533 56.9054 39.1788L56.6336 39.2624C56.0692 39.4506 55.6092 39.5969 55.1702 39.7851C54.1458 40.1614 53.1632 40.5795 52.2015 41.0603L51.6788 41.3112L54.543 44.1545L55.0866 43.9454C55.3792 43.82 55.5465 43.7364 55.7138 43.6946C56.0692 43.5482 56.4037 43.4019 56.7382 43.2973C57.1354 43.1301 57.5535 43.0047 57.9507 42.8792C58.2643 42.7747 58.5152 42.712 58.7452 42.6492L58.9961 42.5656C59.247 42.482 59.4351 42.4402 59.6442 42.3984C60.1459 42.2729 60.6477 42.1475 61.1494 42.043C63.1774 41.6248 65.2889 41.4158 67.4005 41.4158C69.512 41.4158 71.6236 41.6248 73.6515 42.043C74.1533 42.1475 74.655 42.2729 75.1568 42.3984C75.3659 42.4402 75.554 42.5029 75.7631 42.5656C75.8885 42.5865 75.9512 42.6074 76.014 42.6283C76.3276 42.712 76.5784 42.7956 76.8293 42.8583C77.2475 43.0047 77.6656 43.1301 78.0837 43.2973C78.4391 43.4228 78.7736 43.5482 79.0872 43.6946C79.3381 43.7782 79.5681 43.8827 79.7771 43.9873L80.0489 44.1127L80.4671 43.9873L83.1431 41.3112L82.6204 41.0603C81.7424 40.6213 80.7807 40.2241 79.6935 39.806L79.4845 39.7432C79.1709 39.6178 78.8363 39.4924 78.46 39.3878C78.2301 39.3042 78.1046 39.2624 77.9583 39.2206C77.5611 39.0951 77.1429 38.9697 76.7039 38.8443C76.2021 38.6979 75.7213 38.5934 75.2195 38.4679C74.7596 38.3634 74.4669 38.3007 74.1742 38.2589C73.9442 38.2171 73.7979 38.1962 73.6515 38.1543C72.5853 37.9662 71.54 37.8198 70.5365 37.7362C69.512 37.6526 68.4667 37.5899 67.4214 37.5899C66.3761 37.5899 65.3307 37.6317 64.3063 37.7362C63.4283 37.8198 62.5711 37.9244 61.693 38.0707L61.1913 38.1543L61.1704 38.1125ZM55.1075 38.8024L55.6719 38.6143C56.0692 38.4679 56.4455 38.3425 56.8636 38.2171C57.3445 38.0707 57.8253 37.9453 58.3271 37.7989C58.6825 37.6944 59.0379 37.6108 59.4142 37.5481L59.7487 37.4853V37.1508L56.8009 29.8963H47.7902L55.1284 38.8234L55.1075 38.8024ZM74.885 37.4226L75.3659 37.5272C75.7422 37.6108 76.0976 37.6944 76.453 37.7989C76.9339 37.9244 77.4356 38.0707 77.9165 38.2171C78.3137 38.3425 78.7109 38.4679 79.0872 38.6143L79.359 38.7188L79.819 38.5934L86.969 29.8963H77.9374L74.8432 37.4435L74.885 37.4226ZM60.8149 37.2554L61.1494 37.1926C61.7766 37.0881 62.2575 37.0045 62.7174 36.9418C63.3446 36.8581 63.8464 36.8163 64.3272 36.7745C64.829 36.7327 65.3517 36.6909 65.8534 36.6909C66.3761 36.6491 66.8778 36.6491 67.3796 36.6491C67.8813 36.6491 68.3831 36.6491 68.8848 36.6909C69.9302 36.7327 70.9337 36.8163 71.9372 36.9418C72.439 37.0254 72.9407 37.0881 73.4634 37.1717L73.7979 37.2345L74.0906 36.9418L76.9966 29.8963H57.7835L60.8149 37.2554ZM77.8956 28.9555H86.9899L78.6273 19.0876H70.5156L77.8956 28.9555ZM58.0135 28.9555H76.7666L69.3866 19.0876H65.3935L58.0135 28.9555ZM47.7902 28.9555H56.8636L64.2436 19.0876H56.1528L47.7902 28.9555Z" fill="#00003D"/>
<path d="M66.9827 115.195C65.7701 115.195 64.5784 115.132 63.3868 115.028C55.1078 114.233 47.2469 110.512 41.2468 104.574C35.2675 98.6369 31.4834 90.8179 30.5845 82.5389C30.1245 78.2531 30.4172 73.9673 31.4416 69.8278C31.6507 68.9915 32.2152 68.2807 32.9887 67.9044C33.4068 67.6953 33.8668 67.5908 34.3267 67.5908C34.7448 67.5908 35.1212 67.6744 35.4975 67.8417C36.8564 68.427 37.5672 69.8696 37.2327 71.2703C36.2919 75.1171 36.1038 79.1103 36.6892 83.1243C38.6544 96.6508 49.4839 107.292 63.0732 108.986C64.3694 109.153 65.6865 109.237 67.0036 109.237C74.9481 109.237 82.4744 106.226 88.2028 100.748C94.9138 94.3302 98.3424 85.3404 97.6107 76.0788C96.3981 60.8798 84.0006 48.7958 68.7597 47.9596C68.1953 47.9178 67.6099 47.9178 67.0454 47.9178C59.749 47.9178 52.9335 50.4056 47.3306 55.1305L46.9752 55.4232L48.0205 56.4058C48.4804 56.8448 48.6895 57.472 48.5431 58.0992C48.3968 58.7264 47.9787 59.2282 47.3724 59.4372L44.9472 60.3153C44.9472 60.3153 44.8009 60.3571 44.7173 60.3571C44.4455 60.3571 44.1946 60.1899 44.0901 59.9181C43.9646 59.5627 44.1528 59.1864 44.4873 59.0609L47.1215 58.0992L47.226 57.8274L47.2888 57.5766L47.0588 57.3466L45.5117 55.8831C45.3863 55.7577 45.3026 55.5695 45.3026 55.3814C45.3026 55.1932 45.3863 55.026 45.5117 54.9005C51.4282 49.5067 59.0591 46.5588 67.0245 46.5588C67.6099 46.5588 68.2162 46.5588 68.8015 46.6007C76.4533 47.0188 83.7497 50.2384 89.3317 55.6741C94.9138 61.1098 98.3215 68.3016 98.9278 75.9534C99.7014 85.6122 96.1264 94.9992 89.1227 101.689C83.1434 107.397 75.2826 110.554 67.0036 110.554C65.6447 110.554 64.2648 110.47 62.9059 110.303C56.0904 109.446 49.5885 106.289 44.6127 101.418C39.637 96.5463 36.3546 90.1071 35.372 83.3125C34.7658 79.1312 34.9539 74.9708 35.9574 70.9358C36.1456 70.1623 35.7484 69.3678 34.9957 69.0542C34.7867 68.9706 34.5776 68.9288 34.3476 68.9288C34.0967 68.9288 33.825 68.9915 33.595 69.096C33.156 69.3051 32.8633 69.6814 32.7378 70.1414C31.7552 74.1345 31.4834 78.274 31.9225 82.3926C33.6995 98.9296 46.9961 112.101 63.5331 113.69C64.6621 113.794 65.8119 113.857 66.9618 113.857C78.7739 113.857 89.7708 108.003 96.3563 98.177C96.4818 97.9888 96.6908 97.8843 96.9208 97.8843C97.0462 97.8843 97.1717 97.9261 97.2971 97.9888C97.6107 98.1979 97.6943 98.616 97.4853 98.9087C93.8685 104.303 88.8718 108.651 83.0598 111.494C78.1258 113.899 72.5647 115.174 67.0245 115.174L66.9827 115.195Z" fill="#00003D"/>
<path d="M89.8742 19.4222C89.7279 19.4222 89.6025 19.3595 89.5188 19.2549C89.3516 19.0668 89.3934 18.7741 89.5816 18.6068L95.7281 13.4429C95.7281 13.4429 95.9162 13.3384 96.0208 13.3384C96.1462 13.3384 96.2716 13.4011 96.3553 13.5056C96.4389 13.6102 96.4807 13.7356 96.4598 13.8401C96.4598 13.9656 96.3971 14.0701 96.2926 14.1328L90.146 19.2967C90.146 19.2967 89.9579 19.4013 89.8533 19.4013L89.8742 19.4222Z" fill="#00003D"/>
<path d="M79.7776 11.6867C79.7776 11.6867 79.6522 11.6867 79.5895 11.6449C79.4849 11.6031 79.4013 11.4986 79.3595 11.394C79.3177 11.2895 79.3177 11.1641 79.3595 11.0595L82.7672 3.78408C82.8509 3.61683 82.9972 3.5332 83.1645 3.5332C83.5826 3.67955 83.6871 3.95133 83.5826 4.1813L80.1748 11.4568C80.1121 11.624 79.9449 11.7076 79.7567 11.7076L79.7776 11.6867Z" fill="#00003D"/>
<path d="M67.3799 8.94798C67.129 8.94798 66.9199 8.73892 66.9199 8.48804V0.439037C66.9199 0.188159 67.129 0 67.3799 0C67.6307 0 67.8189 0.188159 67.8189 0.439037V8.46714C67.8189 8.71801 67.6098 8.92708 67.3799 8.92708V8.94798Z" fill="#00003D"/>
<path d="M54.9827 11.6867C54.8155 11.6867 54.6482 11.5822 54.5646 11.415L51.1777 4.13949C51.0732 3.90952 51.1777 3.63774 51.3868 3.5332C51.4495 3.5332 51.4913 3.5332 51.554 3.5332C51.8049 3.5332 51.9304 3.61683 51.9931 3.76317L55.3799 11.0386C55.4427 11.1432 55.4427 11.2686 55.3799 11.394C55.3381 11.4986 55.2545 11.6031 55.15 11.6449L54.9618 11.6867H54.9827Z" fill="#00003D"/>
<path d="M44.9046 19.4222C44.7792 19.4222 44.6746 19.3595 44.6119 19.3176L38.4654 14.1537C38.2772 13.9865 38.2563 13.7147 38.4027 13.5056C38.4863 13.4011 38.6117 13.3384 38.7581 13.3384C38.8626 13.3384 38.9672 13.3802 39.0508 13.4429L45.2182 18.6068C45.4064 18.7741 45.4273 19.0668 45.2809 19.2549C45.1973 19.3595 45.0719 19.4222 44.9255 19.4222H44.9046Z" fill="#00003D"/>
</svg>
