<svg width="149" height="115" viewBox="0 0 149 115" fill="none" xmlns="http://www.w3.org/2000/svg">
<path d="M116.85 15.0411C116.85 15.0411 116.847 15.0379 116.845 15.0349L116.508 14.6585L43.5888 0.372586L43.1359 0.594235C43.1359 0.594235 43.1302 0.596945 43.1273 0.598912L0.382206 21.4555L59.0923 114.482L148.565 50.4866L116.85 15.0411ZM107.388 62.9684L107.239 44.0604L126.248 47.7845L107.388 62.9684ZM126.006 51.7353L119.504 67.1777L109.306 65.1797L126.006 51.7353ZM45.7058 32.0052L71.5754 37.0735L56.1432 53.6132L45.7058 32.0052ZM72.0162 40.8921L60.2195 101.106L57.2596 56.7068L72.0162 40.8921ZM74.8939 41.4558L82.5919 61.6698L63.0972 101.67L74.8939 41.4558ZM84.7934 59.2249L76.7429 38.0858L102.611 43.1538L84.7934 59.2249ZM77.0877 35.1831L93.534 14.6365L103.443 40.3464L77.0877 35.1831ZM45.9951 29.0916L64.873 9.02141L72.3503 34.255L45.9951 29.0916ZM22.0694 27.3745L41.0781 31.0986L33.8054 48.5526L22.0694 27.3745ZM31.1951 49.8768L20.9981 47.8791L20.8033 31.1259L31.1964 49.877L31.1951 49.8768ZM22.3167 24.4527L42.2419 5.40561L41.694 28.249L22.3167 24.4527ZM43.2185 33.5838L54.3104 56.5476L57.4585 103.781L35.5831 51.9093L43.2185 33.5838ZM85.3832 62.6352L104.32 45.5557L104.476 65.4077L64.6447 105.188L85.3832 62.6352ZM107.744 41.1891L115.856 19.8277L127.121 44.9854L107.744 41.1891ZM105.749 38.1854L96.3007 13.6699L113.759 17.0902L105.747 38.1851L105.749 38.1854ZM77.0256 30.5749L80.9273 10.6593L91.3351 12.6983L77.0253 30.5762L77.0256 30.5749ZM74.1479 30.0112L67.6422 8.05526L78.0499 10.0943L74.1479 30.0112ZM44.6752 26.2202L45.2171 3.66189L62.6768 7.08247L44.6764 26.2204L44.6752 26.2202ZM18.8007 23.7639L7.03604 21.459L35.9923 7.32961L18.8007 23.7639ZM17.8175 26.5415L18.02 43.9221L5.53037 24.1343L17.8163 26.5413L17.8175 26.5415ZM32.9455 53.19L51.2308 96.5462L22.5883 51.1609L32.9467 53.1902L32.9455 53.19ZM106.434 67.5875L116.793 69.6169L73.1404 100.84L106.434 67.5875ZM130.501 48.6178L142.787 51.0247L123.755 64.637L130.5 48.6175L130.501 48.6178ZM130.637 45.6742L120.918 23.9677L142.402 47.9791L130.637 45.6742Z" fill="#00003D"/>
</svg>
