<svg width="120" height="130" viewBox="0 0 120 130" fill="none" xmlns="http://www.w3.org/2000/svg">
<circle cx="68.125" cy="59.375" r="51.875" fill="white"/>
<circle cx="30.625" cy="99.375" r="30.625" fill="#F9D52E"/>
<path d="M32.3951 8.75515C32.5022 8.75515 32.6093 8.72219 32.7164 8.70571C32.8483 8.68923 32.9801 8.66451 33.1119 8.64803C33.4992 8.61507 33.7794 8.77163 34.0019 9.08476C34.142 9.27429 34.1914 9.49677 34.2326 9.67806C34.2491 9.74398 34.2573 9.7687 34.2656 9.79342C34.3233 9.94174 34.4386 10.0406 34.521 9.99118C34.6199 9.92526 34.5952 9.83462 34.5787 9.73574C34.5622 9.62862 34.5375 9.52149 34.521 9.42261C34.4963 9.26605 34.4716 9.10124 34.4633 8.94468C34.4469 8.57387 34.5952 8.2937 34.9413 8.1289C35.1473 8.03001 35.3533 7.93937 35.5511 7.83225C35.584 7.81577 35.617 7.7416 35.6087 7.70864C35.6005 7.66744 35.5428 7.618 35.5016 7.60976C35.4275 7.59328 35.345 7.60152 35.2626 7.60976C35.0814 7.64272 34.8918 7.68392 34.7106 7.71688C34.2821 7.79105 34.0184 7.66744 33.8041 7.28839C33.7464 7.18127 33.697 7.07415 33.6476 6.95878C33.6064 6.8599 33.5652 6.76102 33.5157 6.66214C33.4745 6.59621 33.4333 6.52205 33.3344 6.53029C33.2603 6.53029 33.2438 6.62094 33.2685 6.76926C33.318 7.03295 33.3756 7.29663 33.4168 7.56032C33.458 7.83225 33.3262 8.03001 33.0872 8.15362C32.9307 8.22778 32.7659 8.2937 32.6093 8.36786C32.5104 8.40906 32.4115 8.45026 32.3126 8.49971C32.2138 8.54915 32.1561 8.63979 32.2055 8.68099C32.2467 8.72219 32.3209 8.75515 32.3786 8.75515H32.3951Z" fill="#00003D"/>
<path d="M35.3032 17.8111C35.6163 17.7122 35.7894 17.3414 35.6905 17.0201C35.5916 16.7152 35.2538 16.5586 34.9406 16.674C34.6275 16.7893 34.4215 17.1849 34.5286 17.465C34.6357 17.737 35.0065 17.9018 35.3032 17.8111Z" fill="#00003D"/>
<path d="M34.6938 2.92122C35.0069 2.82234 35.18 2.45153 35.0811 2.13016C34.9822 1.82528 34.6444 1.66871 34.3313 1.78407C34.0181 1.89944 33.8121 2.29497 33.9192 2.57514C34.0264 2.84706 34.3972 3.01187 34.6938 2.92122Z" fill="#00003D"/>
<path d="M28.6528 24.2221C28.9659 24.1232 29.139 23.7524 29.0401 23.4311C28.9412 23.1262 28.6034 22.9696 28.2902 23.085C27.9771 23.2003 27.7711 23.5959 27.8782 23.876C27.9853 24.148 28.3562 24.3128 28.6528 24.2221Z" fill="#00003D"/>
<path d="M83.0218 66.2226C83.1206 66.2473 83.236 66.2473 83.3431 66.2638C83.475 66.2803 83.6068 66.2967 83.7387 66.3132C84.1177 66.3874 84.3484 66.6181 84.4803 66.9724C84.5627 67.1949 84.5544 67.4174 84.538 67.6069C84.538 67.6729 84.538 67.6976 84.538 67.7305C84.5462 67.8871 84.6451 68.019 84.7275 67.986C84.8346 67.953 84.8429 67.8542 84.8511 67.7553C84.8593 67.6481 84.8676 67.541 84.8841 67.4339C84.9088 67.2773 84.9253 67.1125 84.9582 66.956C85.0406 66.5934 85.2631 66.3709 85.6339 66.305C85.8564 66.2638 86.0789 66.2308 86.3014 66.1814C86.3426 66.1731 86.392 66.1155 86.392 66.0743C86.392 66.0331 86.3591 65.9671 86.3179 65.9507C86.2519 65.9177 86.1695 65.893 86.0871 65.8847C85.8976 65.8683 85.7163 65.86 85.5268 65.8435C85.0983 65.8023 84.8758 65.6128 84.7687 65.1843C84.744 65.069 84.7275 64.9454 84.711 64.83C84.6945 64.7229 84.6863 64.6157 84.6616 64.5086C84.6451 64.4345 84.6204 64.3521 84.5215 64.3356C84.4473 64.3191 84.4061 64.4015 84.3979 64.5498C84.3732 64.8135 84.3649 65.0854 84.3237 65.3491C84.2908 65.621 84.1177 65.7776 83.854 65.8271C83.681 65.86 83.5079 65.8765 83.3349 65.9012C83.2278 65.9177 83.1207 65.9259 83.0135 65.9507C82.9064 65.9754 82.824 66.0495 82.857 66.099C82.8899 66.1484 82.9476 66.2061 83.0053 66.2143L83.0218 66.2226Z" fill="#00003D"/>
<path d="M83.6245 51.2501L83.7728 51.2665C83.9046 51.283 84.0283 51.2995 84.1601 51.3242L84.3002 51.3489C84.5227 51.3901 84.7369 51.4313 84.9512 51.489C85.4868 51.6456 85.7752 51.9752 85.8493 52.5026L85.8741 52.6756C85.9153 53.0052 85.9565 53.3431 86.0141 53.6727C86.0471 53.8457 86.2284 54.027 86.4014 54.0435C86.4179 54.0435 86.4262 54.0435 86.4426 54.0435C86.5992 54.0435 86.7887 53.9446 86.8629 53.8045C86.937 53.6727 86.9865 53.5161 87.0195 53.3348C87.0442 53.1618 87.0689 52.9805 87.0854 52.8075C87.1019 52.6591 87.1183 52.5191 87.1348 52.379C87.2255 51.7445 87.4891 51.4643 88.1236 51.3407C88.2555 51.316 88.3956 51.2995 88.5439 51.2913C88.6016 51.2913 88.6675 51.283 88.7252 51.2748C88.7829 51.2748 88.8405 51.2665 88.9065 51.2583C89.0301 51.2501 89.1619 51.2336 89.2937 51.2089C89.4256 51.1841 89.7222 51.1265 89.8046 50.8051C89.8294 50.698 89.8046 50.5908 89.747 50.5084C89.6563 50.3848 89.4998 50.3107 89.2443 50.2777L88.9889 50.2448C88.6263 50.2036 88.2472 50.1541 87.8847 50.0882C87.5468 50.0305 87.3491 49.8163 87.2996 49.4455C87.2667 49.2477 87.2502 49.0499 87.2337 48.8439C87.2337 48.7533 87.2172 48.6544 87.209 48.5637L87.1925 48.3989C87.1843 48.2671 87.1678 48.1353 87.1513 48.0034C87.1183 47.7974 87.003 47.6161 86.8546 47.542C86.7558 47.4925 86.6404 47.4925 86.5415 47.542C86.4179 47.6079 86.2696 47.748 86.2119 47.921C86.1707 48.0611 86.146 48.2012 86.1295 48.333C86.1295 48.3907 86.113 48.4484 86.1048 48.4978L86.0718 48.6791C86.0471 48.8439 86.0224 49.0087 85.9812 49.1653C85.8576 49.7009 85.528 50.0305 84.9594 50.2036C84.6133 50.3107 84.2507 50.2777 83.9541 50.253H83.8387C83.7893 50.253 83.7481 50.2448 83.7151 50.2448C83.4514 50.2448 83.2207 50.3601 83.0971 50.5167C83.0229 50.6238 82.9982 50.7392 83.0229 50.8628C83.1136 51.2089 83.4267 51.2501 83.608 51.2748L83.6245 51.2501ZM83.7398 50.7144C83.7398 50.7144 83.7893 50.7144 83.8222 50.7144H83.9211C84.2343 50.7474 84.671 50.7886 85.1077 50.6485C85.8493 50.4178 86.3025 49.9481 86.4674 49.2477C86.5086 49.0746 86.5333 48.9016 86.5662 48.7286L86.5992 48.5555C86.6074 48.4978 86.6157 48.4319 86.6239 48.366C86.6404 48.2671 86.6486 48.1682 86.6734 48.0776C86.6898 48.1847 86.6981 48.2918 86.7063 48.3989L86.7228 48.572C86.731 48.6626 86.7393 48.7533 86.7475 48.8439C86.764 49.0499 86.7805 49.2642 86.8134 49.4784C86.9041 50.0635 87.2502 50.4343 87.8023 50.5332C88.1813 50.5991 88.5604 50.6485 88.9312 50.6897L89.096 50.7062C89.0218 50.7144 88.9477 50.7227 88.8653 50.7309C88.7993 50.7309 88.7417 50.7392 88.6757 50.7474C88.6181 50.7474 88.5604 50.7556 88.5027 50.7639C88.3544 50.7804 88.1978 50.7968 88.0412 50.8216C87.209 50.9864 86.7805 51.4313 86.6651 52.2718C86.6404 52.4202 86.6239 52.5685 86.6074 52.7168C86.591 52.8899 86.5662 53.0547 86.5415 53.2277C86.525 53.3184 86.5086 53.3925 86.4838 53.4584C86.4344 53.17 86.4014 52.8734 86.3685 52.585L86.3438 52.4119C86.2531 51.6868 85.8246 51.2006 85.0995 50.9946C84.8688 50.9287 84.6298 50.8875 84.3991 50.8463L84.259 50.8216C84.1189 50.7968 83.9788 50.7804 83.847 50.7639L83.6822 50.7392C83.6822 50.7392 83.6162 50.7309 83.5833 50.7227C83.6245 50.7062 83.6822 50.6897 83.7481 50.6897L83.7398 50.7144Z" fill="#00003D"/>
<path d="M83.7069 72.3038C83.3691 72.3367 83.0724 72.6581 83.0971 72.9547C83.1219 73.2431 83.4432 73.5068 83.7481 73.4986C84.0777 73.4821 84.3497 73.1772 84.3332 72.8394C84.3167 72.518 84.0365 72.279 83.7069 72.3038Z" fill="#00003D"/>
<path d="M93.0682 63.0088C92.7304 63.0418 92.4338 63.3632 92.4585 63.6598C92.4832 63.9482 92.8046 64.2119 93.1095 64.2037C93.4391 64.1872 93.711 63.8823 93.6945 63.5445C93.678 63.2231 93.3979 62.9841 93.0682 63.0088Z" fill="#00003D"/>
<path d="M79.6446 62.127C79.9742 62.1105 80.2461 61.8056 80.2297 61.4678C80.2132 61.1464 79.933 60.9075 79.6034 60.9322C79.2656 60.9651 78.9689 61.2865 78.9936 61.5832C79.0184 61.8716 79.3397 62.1353 79.6446 62.1188V62.127Z" fill="#00003D"/>
<path d="M60.271 106.863C60.2051 106.83 60.1227 106.806 60.0403 106.797C59.8507 106.781 59.6694 106.773 59.4799 106.756C59.0514 106.715 58.8289 106.525 58.7218 106.097C58.6971 105.982 58.6806 105.858 58.6641 105.743C58.6477 105.635 58.6394 105.528 58.6147 105.421C58.5982 105.347 58.5735 105.265 58.4746 105.248C58.4004 105.232 58.3592 105.314 58.351 105.462C58.3345 105.726 58.318 105.998 58.2768 106.262C58.2439 106.534 58.0708 106.69 57.8072 106.74C57.6341 106.773 57.4611 106.789 57.288 106.814C57.1809 106.83 57.0738 106.839 56.9666 106.863C56.8595 106.888 56.7771 106.962 56.8101 107.012C56.843 107.061 56.9007 107.119 56.9584 107.127C57.0573 107.152 57.1727 107.152 57.2798 107.168C57.4116 107.185 57.5435 107.201 57.6753 107.226C58.0544 107.3 58.2851 107.531 58.4169 107.885C58.4993 108.108 58.4911 108.33 58.4746 108.52C58.4746 108.585 58.4746 108.61 58.4746 108.643C58.4829 108.8 58.5817 108.932 58.6641 108.899C58.7713 108.866 58.7795 108.767 58.7877 108.668C58.796 108.561 58.8042 108.454 58.8207 108.346C58.8454 108.19 58.8619 108.025 58.8949 107.869C58.9773 107.506 59.1997 107.284 59.5706 107.218C59.793 107.176 60.0155 107.143 60.238 107.094C60.2792 107.086 60.3287 107.028 60.3287 106.987C60.3287 106.946 60.2957 106.88 60.2545 106.863H60.271Z" fill="#00003D"/>
<path d="M61.5565 101.507C61.2187 101.54 60.922 101.861 60.9468 102.158C60.9715 102.447 61.2928 102.71 61.5977 102.702C61.9273 102.685 62.1993 102.381 62.1828 102.043C62.1663 101.721 61.8861 101.482 61.5565 101.507Z" fill="#00003D"/>
<path d="M65.3964 115.029C65.0585 115.062 64.7619 115.384 64.7866 115.68C64.8113 115.969 65.1327 116.232 65.4376 116.224C65.7672 116.208 66.0391 115.903 66.0226 115.565C66.0062 115.244 65.726 115.005 65.3964 115.029Z" fill="#00003D"/>
<path d="M90.3405 124.267C90.2416 124.267 90.1592 124.201 90.1345 124.102C90.0851 123.846 85.0832 98.1285 84.0367 95.2527C82.9902 92.3439 82.0838 88.7594 82.0756 88.7265C82.0673 88.6358 81.6388 82.9665 79.4469 80.7664C79.4222 80.7417 79.4057 80.717 79.3975 80.684C79.3645 80.5934 76.3733 71.389 75.0961 68.7522C74.4039 67.3266 72.2367 64.7886 70.325 62.5555C68.4133 60.3224 67.2349 58.9298 67.0866 58.353C67.0536 58.2459 67.1196 58.1305 67.2349 58.0976C67.3421 58.0728 67.4574 58.1305 67.4904 58.2459C67.6305 58.7568 69.0972 60.4707 70.6464 62.2836C72.5746 64.5414 74.7665 67.0959 75.4752 68.5709C76.7359 71.1666 79.5293 79.7199 79.7848 80.511C82.0591 82.8429 82.4793 88.4216 82.4958 88.6605C82.4958 88.6605 83.394 92.2286 84.4405 95.1126C85.4953 98.0214 90.3405 122.965 90.5465 124.028C90.5712 124.143 90.4971 124.25 90.3817 124.267C90.3652 124.267 90.357 124.267 90.3405 124.267Z" fill="#00003D"/>
<path d="M70.1669 125C70.068 125 69.9774 124.926 69.9609 124.819C68.8238 115.936 66.4588 98.8621 65.5441 97.0492C64.3328 96.596 48.4292 90.6713 44.4657 89.3528C40.2632 87.952 37.7334 87.1115 37.8982 81.9119C37.8982 79.9343 40.5763 74.9242 42.3562 71.6117C42.8835 70.6228 43.345 69.7659 43.6087 69.222C43.7817 68.8594 44.0372 68.3238 44.3421 67.6811C46.74 62.6381 49.3521 57.2078 50.0773 56.5485C51.0249 55.6833 65.8902 50.7227 67.1263 50.6403C67.3323 50.6238 67.8102 50.5744 68.4529 50.5002C73.9574 49.8822 77.7397 49.602 78.3494 50.2118C78.6708 50.5332 78.8027 51.1265 78.7203 51.8846C78.5884 53.0959 77.8715 54.7686 76.6108 55.5762C74.8144 56.7216 67.1922 58.5344 66.8626 58.6168L57.9796 62.704C57.8725 62.7534 57.7571 62.704 57.7077 62.6051C57.6583 62.498 57.7077 62.3826 57.8066 62.3332L66.7307 58.2378C66.8461 58.2048 74.6496 56.3508 76.3883 55.2383C77.5337 54.5132 78.1846 52.9723 78.3082 51.8516C78.3742 51.2336 78.2835 50.7392 78.061 50.5167C77.4677 49.9234 70.719 50.6733 68.5024 50.9205C67.8514 50.9946 67.3735 51.0441 67.1592 51.0606C66.0221 51.143 51.2309 56.0788 50.3574 56.8617C49.6323 57.5209 46.3115 64.5086 44.7129 67.8624C44.408 68.5051 44.1525 69.0407 43.9795 69.4115C43.7076 69.9636 43.2461 70.8288 42.7187 71.8177C40.9636 75.0973 38.302 80.0496 38.3102 81.9284C38.1537 86.8231 40.4444 87.5894 44.5975 88.9738C48.7011 90.3417 65.5853 96.6454 65.7584 96.7031C65.7996 96.7196 65.8408 96.7526 65.8655 96.7855C67.0109 98.6725 70.2328 123.706 70.3647 124.769C70.3812 124.885 70.2988 124.984 70.1834 125C70.1751 125 70.1669 125 70.1587 125H70.1669Z" fill="#00003D"/>
<path d="M45.1101 79.8436C45.0441 79.8436 44.9782 79.8106 44.937 79.7529C44.8711 79.654 44.9041 79.5304 44.9947 79.4645L48.6946 77.0501C49.9553 74.611 55.9047 63.1077 56.7205 62.6133C57.5116 62.1353 59.3327 62.1271 62.6288 62.5886C65.6612 63.0088 68.6524 64.4673 69.5505 65.0606C70.4982 65.6951 72.9126 67.6728 73.2751 68.299C73.5059 68.7028 73.6459 69.9223 73.0938 70.8041C72.789 71.2902 72.1462 71.8506 70.8855 71.7764C70.0285 71.727 69.0726 71.7187 68.1497 71.7187C66.1226 71.7187 64.2026 71.7105 63.0078 71.2243C62.9007 71.1831 62.8512 71.0595 62.8925 70.9524C62.9337 70.8453 63.0573 70.7958 63.1644 70.837C64.285 71.2902 66.2545 71.2902 68.1497 71.2985C69.0726 71.2985 70.0367 71.2985 70.9102 71.3561C71.7672 71.4138 72.3934 71.1501 72.7478 70.5816C73.2174 69.8235 73.0774 68.777 72.9208 68.4968C72.6241 67.9694 70.3251 66.0577 69.3281 65.3902C68.4546 64.8052 65.5458 63.3961 62.5793 62.9841C60.5934 62.7122 57.8494 62.4073 56.9348 62.9594C56.3497 63.3467 51.7846 71.9494 49.0406 77.2809C49.0242 77.3138 48.9994 77.3385 48.9665 77.355L45.2254 79.7941C45.2254 79.7941 45.1513 79.8271 45.1101 79.8271V79.8436Z" fill="#00003D"/>
<path d="M75.2931 77.6517C75.2931 77.6517 75.2519 77.6517 75.2272 77.6434C68.6185 75.4433 62.2324 77.6187 62.1747 77.6434C62.1252 77.6599 62.0593 77.6599 62.0099 77.6352C61.9604 77.6105 61.9192 77.561 61.9028 77.5116L61.0787 74.6605C61.0623 74.5945 61.0787 74.5286 61.1117 74.4792C63.5096 71.4385 62.4878 68.5215 62.4796 68.4968C62.4384 68.3897 62.496 68.2743 62.6032 68.2331C62.7103 68.1919 62.8257 68.2496 62.8669 68.3567C62.9163 68.4803 63.9628 71.4633 61.499 74.6522L62.2324 77.1984C63.3942 76.8441 69.2778 75.2373 75.3426 77.2644C75.4497 77.2973 75.5074 77.4209 75.4744 77.5281C75.4414 77.6105 75.3673 77.6681 75.2766 77.6681L75.2931 77.6517Z" fill="#00003D"/>
<path d="M40.3876 87.6388C40.3876 87.6388 40.3381 87.6388 40.3134 87.6223C40.0909 87.5317 34.7925 85.4881 33.6306 83.9967C32.4934 82.5381 33.2351 79.7529 34.0179 76.8029L34.1662 76.2509C34.5617 74.7347 35.1633 69.9059 35.7483 65.2337C36.3581 60.3637 36.9267 55.7574 37.2645 54.9169C37.9567 53.1782 43.4612 34.8685 43.8402 32.4294C44.005 31.3581 44.4665 30.6165 45.1916 30.2292C45.9662 29.8172 47.0292 29.8502 48.0345 30.3281C49.3364 30.9461 50.7867 32.52 50.35 39.3182C50.0533 43.9245 48.4383 50.9039 47.5648 54.6532C47.2681 55.9222 47.0127 57.0264 47.0127 57.183C47.0127 57.834 47.2846 62.4155 47.2846 62.465C47.2846 62.5803 47.2022 62.6792 47.0869 62.6792C46.9715 62.6792 46.8726 62.5968 46.8726 62.4814C46.8644 62.2919 46.6007 57.8422 46.6007 57.1747C46.6007 56.977 46.7737 56.2271 47.161 54.5461C48.0262 50.8051 49.6413 43.8503 49.938 39.277C50.3582 32.6601 48.9574 31.2016 47.8614 30.6907C46.9715 30.2704 46.0486 30.2375 45.3894 30.5836C44.7796 30.9049 44.3923 31.5477 44.2522 32.4871C43.8485 35.0662 38.3769 53.2442 37.6518 55.0653C37.3304 55.8646 36.7371 60.6521 36.1603 65.2831C35.5753 69.9718 34.9737 74.8171 34.57 76.358L34.4216 76.9101C33.6635 79.7612 32.9549 82.4475 33.9602 83.7494C35.0479 85.1503 40.4123 87.2268 40.4617 87.2433C40.5688 87.2845 40.6183 87.3999 40.5771 87.507C40.5441 87.5894 40.47 87.6388 40.3876 87.6388Z" fill="#00003D"/>
<path d="M34.5126 75.8553C34.4055 75.8553 34.3148 75.7729 34.3066 75.6575C34.2654 74.8417 33.2683 55.6915 33.4249 53.343C33.5238 51.9257 34.4219 48.3 35.1471 45.3912C35.6415 43.3971 36.07 41.6748 36.1029 41.2216C36.1359 40.7437 35.9546 38.7248 35.7651 36.5824C35.4437 32.9402 35.2377 30.5176 35.3778 30.0726C35.5179 29.6276 35.8722 29.2651 36.3254 29.092C36.894 28.8778 37.5532 28.9684 38.1877 29.3475C39.3825 30.0561 43.1648 34.0526 43.2142 36.5247C43.2142 36.6401 43.1236 36.7307 43.0082 36.7307C42.9176 36.7307 42.8022 36.6401 42.8022 36.5247C42.7528 34.2257 39.0941 30.3528 37.9817 29.6936C37.4543 29.3804 36.9187 29.298 36.4737 29.4711C36.1359 29.6029 35.8722 29.8749 35.7651 30.1962C35.6415 30.6 35.9464 34.0362 36.1689 36.5412C36.3666 38.7908 36.5397 40.7355 36.5067 41.2464C36.4737 41.7325 36.0617 43.3888 35.5344 45.4818C34.8092 48.3824 33.911 51.9916 33.8204 53.3677C33.6638 55.6915 34.6856 75.435 34.7021 75.6328C34.7021 75.7481 34.6197 75.8388 34.5043 75.847H34.4961L34.5126 75.8553Z" fill="#00003D"/>
<path d="M53.6793 55.436C53.5722 55.436 53.4815 55.3454 53.4733 55.2383C53.4733 55.2136 53.3579 52.4036 52.7152 50.1293C52.056 47.7891 51.5698 41.4442 52.2372 39.9362C52.2867 39.8291 52.4021 39.7879 52.5092 39.8291C52.6163 39.8785 52.6575 39.9939 52.6163 40.101C51.99 41.5183 52.4845 47.7809 53.119 50.014C53.7699 52.3377 53.8853 55.1888 53.8853 55.2218C53.8853 55.3372 53.8029 55.4278 53.6875 55.436H53.6793Z" fill="#00003D"/>
<path d="M63.955 51.9421C63.8891 51.9421 63.8314 51.9092 63.7902 51.8597C62.5706 50.1705 61.6807 40.0762 62.1586 36.0879C62.6201 32.215 61.5076 31.152 61.4911 31.1438C61.4087 31.0696 61.4005 30.9378 61.4747 30.8554C61.5488 30.773 61.6724 30.7648 61.7631 30.8389C61.8125 30.8884 63.0568 32.0173 62.5624 36.1456C62.0597 40.2987 63.0568 50.1375 64.1198 51.629C64.1857 51.7196 64.161 51.8515 64.0703 51.9174C64.0374 51.9421 63.9879 51.9586 63.9467 51.9586L63.955 51.9421Z" fill="#00003D"/>
<path d="M70.3972 50.492C70.3972 50.492 70.084 51.0935 72.6055 51.7362C75.127 52.379 78.2995 51.9834 79.2801 51.7362C80.2525 51.489 79.618 49.9399 78.555 49.7009C77.492 49.4537 70.4054 50.492 70.4054 50.492H70.3972Z" fill="#00003D"/>
<path d="M75.7784 52.2966C74.7154 52.2966 73.5782 52.206 72.5482 51.9423C71.1968 51.5962 70.414 51.2007 70.2162 50.7722C70.1503 50.6156 70.1668 50.4838 70.208 50.4014C70.2409 50.3437 70.2986 50.3025 70.3645 50.2943C70.653 50.2531 77.5088 49.256 78.5965 49.5032C79.3958 49.6845 79.9562 50.5003 79.9644 51.11C79.9644 51.5303 79.7337 51.8352 79.3299 51.9423C78.6954 52.0989 77.3275 52.2966 75.7866 52.2966H75.7784ZM70.6447 50.6651C70.7683 50.8299 71.2051 51.1677 72.6553 51.5385C75.1027 52.1648 78.1928 51.8022 79.2228 51.5385C79.4453 51.4809 79.5524 51.3408 79.5524 51.11C79.5524 50.6486 79.0992 50.0306 78.5059 49.8987C77.6901 49.7092 72.7542 50.3602 70.6447 50.6568V50.6651Z" fill="#00003D"/>
<path d="M70.3824 65.9424C70.3824 65.9424 70.1599 67.3597 70.8109 67.9283C71.4618 68.4969 73.901 70.2026 74.1482 69.5516C74.3954 68.9006 70.3824 65.9424 70.3824 65.9424Z" fill="#00003D"/>
<path d="M73.901 69.9058C72.9946 69.9058 70.9592 68.3237 70.6791 68.0847C69.9539 67.4502 70.1682 65.9752 70.1847 65.9175C70.1929 65.8434 70.2423 65.7857 70.3083 65.761C70.3742 65.7363 70.4483 65.7445 70.506 65.7857C72.0469 66.9228 74.6014 68.9417 74.346 69.6339C74.2965 69.7657 74.1894 69.8564 74.0493 69.8976C74.0081 69.9058 73.9587 69.914 73.901 69.914V69.9058ZM70.5555 66.3296C70.539 66.791 70.5967 67.4667 70.951 67.7716C71.8739 68.5791 73.695 69.6586 73.9587 69.4856C73.9752 69.123 72.2612 67.615 70.5555 66.3296Z" fill="#00003D"/>
<path d="M43.1643 36.014C43.1643 36.014 43.0654 38.313 44.2108 38.0658C45.3479 37.8186 47.2184 31.8033 47.2184 31.3913C47.2184 30.9792 44.6969 29.0346 44.1284 29.7679C43.5598 30.5013 43.1643 36.014 43.1643 36.014Z" fill="#00003D"/>
<path d="M44.0459 38.2882C43.8481 38.2882 43.6751 38.2223 43.5268 38.0987C42.917 37.5795 42.95 36.1622 42.9582 36.0056C42.9994 35.4371 43.3702 30.4105 43.9635 29.6442C44.1036 29.4629 44.4085 29.2816 45.0512 29.5041C45.9329 29.809 47.4244 30.9297 47.4244 31.3994C47.4244 31.7454 45.6116 37.9833 44.2519 38.2717C44.186 38.2882 44.1118 38.2964 44.0459 38.2964V38.2882ZM43.3702 36.0304C43.3537 36.4094 43.4032 37.4642 43.7905 37.7938C43.8976 37.8844 44.013 37.9009 44.1613 37.8762C45.0842 37.6784 46.9794 31.9762 47.0124 31.4076C46.9382 31.1604 45.5456 30.0068 44.6887 29.842C44.4909 29.8008 44.3508 29.8255 44.2931 29.9079C43.9058 30.4023 43.5268 33.9291 43.3702 36.0386V36.0304Z" fill="#00003D"/>
<path d="M35.9214 35.8739C35.9214 35.8739 36.5641 38.1482 37.7013 37.25C38.8384 36.3518 38.0968 31.7208 38.0968 31.7208C38.0968 31.7208 37.2892 28.1116 35.5011 29.1828C35.5011 29.1828 34.8666 30.3447 35.9131 35.8739H35.9214Z" fill="#00003D"/>
<path d="M37.1825 37.6701C37.0836 37.6701 36.9929 37.6536 36.927 37.6289C36.1607 37.3817 35.7734 36.0797 35.7322 35.9396C35.7322 35.9396 35.7322 35.9314 35.7322 35.9232C34.6774 30.3857 35.3119 29.1415 35.3367 29.092C35.3531 29.0591 35.3779 29.0343 35.4108 29.0096C35.8311 28.7542 36.2431 28.713 36.6386 28.8778C37.784 29.3722 38.2949 31.5806 38.3114 31.6712C38.3938 32.1739 39.0365 36.467 37.8417 37.4064C37.5945 37.5959 37.372 37.6619 37.1907 37.6619L37.1825 37.6701ZM36.1195 35.8325C36.2184 36.1786 36.5727 37.085 37.0424 37.2416C37.2072 37.291 37.3802 37.2416 37.5698 37.1015C38.4267 36.4258 38.0889 33.0226 37.8911 31.7619C37.7593 31.1933 37.2484 29.6112 36.4573 29.2651C36.2101 29.1579 35.9464 29.1827 35.6663 29.331C35.5756 29.5947 35.2213 31.0779 36.1195 35.8325Z" fill="#00003D"/>
<path d="M67.2914 25.0131C67.2914 25.0131 67.2585 25.0131 67.242 25.0131C67.1596 24.9884 58.5238 22.8212 49.8716 22.6976C49.6409 22.6976 49.4184 22.6976 49.1877 22.6976C40.8568 22.6976 34.2564 24.8071 34.1905 24.8236C34.0834 24.8648 33.968 24.7989 33.935 24.6918C33.9021 24.5847 33.9598 24.4693 34.0669 24.4363C34.1328 24.4116 41.1617 22.1703 49.8799 22.2939C58.5898 22.4175 67.2585 24.5929 67.3491 24.6176C67.4562 24.6423 67.5222 24.7577 67.4974 24.8648C67.4727 24.9555 67.3903 25.0214 67.2997 25.0214L67.2914 25.0131Z" fill="#00003D"/>
<path d="M35.3196 22.0797C35.2289 22.0797 35.1465 22.022 35.1218 21.9313C35.0888 21.8242 35.1548 21.7088 35.2619 21.6759L38.7063 20.6376L45.1254 18.1985C45.1666 18.182 45.2161 18.182 45.2573 18.1985L50.2261 19.7642L54.5687 18.3056C54.6099 18.2892 54.6594 18.2892 54.7006 18.3056L61.6883 20.7035L65.7754 21.61C65.8825 21.6347 65.9567 21.7418 65.932 21.8572C65.9073 21.9643 65.8001 22.0385 65.6848 22.0137L61.5729 21.0991L54.6346 18.7177L50.2921 20.1762C50.2509 20.1927 50.2097 20.1927 50.1602 20.1762L45.1914 18.6105L38.8217 21.0249L35.3608 22.0632C35.3608 22.0632 35.3196 22.0714 35.3031 22.0714L35.3196 22.0797Z" fill="#00003D"/>
<path d="M66.0556 24.7247C66.0062 24.7247 65.965 24.7083 65.9238 24.6753L61.5812 21.132L56.637 23.1179C56.5876 23.1344 56.5217 23.1344 56.4722 23.1179L50.2179 20.2091L43.2384 23.019C43.189 23.0437 43.1313 23.0355 43.0736 23.019L38.7805 21.0826L34.1742 24.5435C34.0836 24.6094 33.9517 24.5929 33.8858 24.5023C33.8199 24.4116 33.8364 24.2798 33.927 24.2139L38.6322 20.6788C38.6898 20.6294 38.7722 20.6211 38.8382 20.6541L43.1643 22.607L50.1438 19.7971C50.2014 19.7724 50.2591 19.7806 50.3086 19.7971L56.5629 22.7059L61.5317 20.7118C61.5977 20.687 61.6801 20.6953 61.7377 20.7447L66.171 24.3622C66.2616 24.4363 66.2699 24.5599 66.2039 24.6506C66.1627 24.7 66.1051 24.7247 66.0474 24.7247H66.0556Z" fill="#00003D"/>
<path d="M49.8469 42.3588C49.8469 42.3588 49.7645 42.3506 49.7315 42.3259C49.6574 42.2764 49.6244 42.1776 49.6491 42.0869L56.3732 22.8707C56.4144 22.7636 56.5297 22.7059 56.6369 22.7471C56.744 22.7883 56.8017 22.9037 56.7605 23.0108L50.3084 41.4771C52.0223 39.9362 56.9088 35.5524 57.6586 34.8602C58.5568 34.0197 66.4345 25.796 67.0607 24.8237L65.5775 21.9808L61.2102 19.4675C60.4273 19.3439 47.5561 17.3663 39.6702 19.4675C37.7667 20.4811 35.6573 21.7171 35.5007 21.9973C35.443 22.0961 35.3441 22.2445 35.2205 22.4258C34.8497 22.9779 34.0751 24.115 34.3059 24.5435C34.586 25.0626 37.0169 27.9549 38.2612 29.4135C38.3353 29.4959 38.3271 29.6277 38.2364 29.7019C38.154 29.776 38.0222 29.7678 37.948 29.6771C37.7997 29.5041 34.3141 25.4252 33.9433 24.7413C33.589 24.0985 34.3635 22.9531 34.8744 22.195C34.9898 22.0302 35.0804 21.8901 35.1381 21.7913C35.4265 21.2804 38.838 19.451 39.5219 19.0885C47.7539 16.8883 61.1854 19.0473 61.3173 19.0637C61.342 19.0637 61.3667 19.0802 61.3832 19.0885L65.8329 21.6512C65.8329 21.6512 65.8906 21.7006 65.9153 21.7336L67.4727 24.7248C67.4727 24.7248 67.4975 24.7989 67.4975 24.8319C67.4563 25.4417 58.0377 35.0745 57.947 35.1569C57.0406 36.0056 50.0612 42.2517 49.9952 42.3176C49.954 42.3506 49.9046 42.3671 49.8551 42.3671L49.8469 42.3588Z" fill="#00003D"/>
<path d="M45.1916 29.8089C45.101 29.8089 45.0186 29.743 44.9939 29.6524L43.2552 22.8377C43.2305 22.7306 43.2964 22.6152 43.4035 22.5905C43.5106 22.5658 43.626 22.6317 43.6507 22.7388L45.3894 29.5535C45.4141 29.6606 45.3482 29.776 45.2411 29.8007C45.2246 29.8007 45.2081 29.8007 45.1916 29.8007V29.8089Z" fill="#00003D"/>
<path d="M30.483 17.2345C30.3923 17.2345 30.3099 17.1686 30.2852 17.0779C29.8237 15.2568 29.4777 14.919 27.6566 14.4493C27.5659 14.4246 27.5 14.3422 27.5 14.2515C27.5 14.1609 27.5659 14.0785 27.6566 14.0537C29.4777 13.5923 29.8155 13.2462 30.2852 11.4251C30.3099 11.3345 30.3923 11.2686 30.483 11.2686C30.5736 11.2686 30.656 11.3345 30.6807 11.4251C31.1422 13.2462 31.4883 13.5841 33.3094 14.0537C33.4 14.0785 33.4659 14.1609 33.4659 14.2515C33.4659 14.3422 33.4 14.4246 33.3094 14.4493C31.4883 14.9107 31.1422 15.2568 30.6807 17.0779C30.656 17.1686 30.5736 17.2345 30.483 17.2345ZM28.4641 14.2515C29.6425 14.6306 30.1039 15.092 30.483 16.2704C30.862 15.092 31.3235 14.6306 32.5018 14.2515C31.3235 13.8725 30.862 13.411 30.483 12.2327C30.1039 13.411 29.6425 13.8725 28.4641 14.2515Z" fill="#00003D"/>
<path d="M69.5337 17.2344C69.4431 17.2344 69.3607 17.1685 69.336 17.0778C68.8745 15.2567 68.5284 14.9189 66.7073 14.4492C66.6167 14.4245 66.5508 14.3421 66.5508 14.2514C66.5508 14.1608 66.6167 14.0784 66.7073 14.0537C68.5284 13.5922 68.8663 13.2461 69.336 11.425C69.3854 11.2437 69.6903 11.2437 69.7315 11.425C70.193 13.2461 70.539 13.584 72.3601 14.0537C72.4508 14.0784 72.5167 14.1608 72.5167 14.2514C72.5167 14.3421 72.4508 14.4245 72.3601 14.4492C70.539 14.9106 70.2012 15.2567 69.7315 17.0778C69.7068 17.1685 69.6244 17.2344 69.5337 17.2344ZM67.5149 14.2514C68.6932 14.6305 69.1547 15.0919 69.5337 16.2703C69.9128 15.0919 70.3742 14.6305 71.5526 14.2514C70.3742 13.8724 69.9128 13.4109 69.5337 12.2326C69.1547 13.4109 68.6932 13.8724 67.5149 14.2514Z" fill="#00003D"/>
<path d="M50.0611 9.26613C49.9705 9.26613 49.8881 9.2002 49.8634 9.10956C49.1053 6.14308 48.5449 5.57451 45.5784 4.82465C45.4878 4.79993 45.4219 4.71753 45.4219 4.62688C45.4219 4.53624 45.4878 4.45384 45.5784 4.42912C48.5449 3.67102 49.1135 3.11068 49.8634 0.135964C49.9128 -0.0453212 50.2177 -0.0453212 50.2589 0.135964C51.017 3.10244 51.5773 3.67102 54.552 4.42912C54.6427 4.45384 54.7086 4.53624 54.7086 4.62688C54.7086 4.71753 54.6427 4.79993 54.552 4.82465C51.5773 5.58275 51.017 6.14308 50.2589 9.10956C50.2342 9.2002 50.1518 9.26613 50.0611 9.26613ZM46.4107 4.61864C48.6685 5.27786 49.4019 6.01124 50.0611 8.26906C50.7203 6.01124 51.4537 5.27786 53.7115 4.61864C51.4537 3.95943 50.7203 3.22605 50.0611 0.968226C49.4019 3.22605 48.6685 3.95943 46.4107 4.61864Z" fill="#00003D"/>
</svg>
