<svg width="120" height="130" viewBox="0 0 120 130" fill="none" xmlns="http://www.w3.org/2000/svg">
<circle cx="68.125" cy="59.375" r="51.875" fill="white"/>
<ellipse cx="30.625" cy="99.375" rx="30.625" ry="30.625" fill="#F9D52E"/>
<path d="M107.394 66.1595C106.792 66.2058 106.098 66.2868 105.473 66.5878C104.616 66.993 103.609 67.5023 102.671 68.1969C101.433 69.1114 100.229 70.2111 98.9903 71.5423L98.9555 71.5886C98.2494 72.3526 97.5201 73.1514 96.6751 73.7765C95.6332 74.5636 94.5219 75.3739 93.0634 76.4158C91.4427 77.5734 89.961 78.9162 88.6645 80.4095C88.7224 80.2011 88.7919 80.0043 88.8497 79.796C89.0234 79.2172 89.2086 78.6268 89.3707 78.0364C89.9958 75.6749 89.9263 73.3597 89.1623 71.1603C88.896 70.3963 88.6414 69.6207 88.3983 68.8567C88.2594 68.4168 88.1205 67.9885 87.97 67.5486C87.9237 67.3981 87.8426 67.2013 87.7384 67.0161C87.6111 66.8077 87.4259 66.692 87.2291 66.6804C87.0323 66.6804 86.8587 66.7846 86.7313 66.9582C86.5693 67.2013 86.4304 67.4676 86.2915 67.8033C86.0021 68.4863 86.0021 69.1924 86.0252 69.9217C86.0831 71.9012 85.9673 73.8922 85.8516 75.5939C85.7821 76.601 85.7358 77.6428 85.6779 78.5573C85.6316 79.5066 85.7937 80.4211 86.1641 81.2545C86.2799 81.5092 86.3841 81.7755 86.4998 82.088C86.5461 82.2153 86.5924 82.3542 86.6272 82.4932L86.6735 82.6552C86.7198 82.8057 86.685 82.9215 86.5693 83.0488C86.523 83.0951 86.4767 83.1414 86.4304 83.1761C86.3841 83.2224 86.3378 83.2572 86.2915 83.3035C86.141 83.454 85.9789 83.6044 85.8284 83.7549C85.4811 84.0906 85.1107 84.4379 84.775 84.8083C83.409 86.2669 82.2051 87.7834 81.2212 89.3114C80.2141 90.8741 78.9292 92.1475 77.6905 93.2935C77.6905 93.1546 77.7137 93.0388 77.7484 92.9347C77.8989 92.4485 77.9684 91.9507 78.0262 91.4645C78.0494 91.2909 78.0725 91.1172 78.0957 90.9552V90.8857C78.1651 90.469 78.2346 90.0407 78.3388 89.6239C78.5703 88.6747 78.825 87.7139 79.0912 86.7647C79.7742 84.3106 79.9941 81.8565 79.7395 79.4487C79.67 78.8352 79.6006 78.2332 79.5195 77.6313C79.1491 74.8878 78.987 72.6073 79.0102 70.5121C79.6816 68.3358 80.3646 66.1595 81.0244 63.9948C82.2167 60.14 83.3859 56.2736 84.5782 52.4073C85.7358 48.6567 86.8934 44.8945 88.0857 41.1439C88.4214 40.0673 88.4099 39.1065 87.9931 38.0184C85.4696 31.4895 83.027 24.926 80.5498 18.374C80.434 18.073 80.3298 17.7605 80.2025 17.4711C79.9247 16.846 79.5311 16.6723 78.906 16.927C78.2114 17.2164 77.54 17.5637 76.8571 17.8646C69.9231 20.9554 62.9775 24.0346 56.0435 27.1254C55.6036 27.3222 55.1637 27.5421 54.7239 27.7505C54.1451 28.0283 53.8093 28.4914 53.7167 29.1165C53.7167 29.1628 53.7052 29.1975 53.6936 29.2438C53.5315 28.3177 53.3 27.4148 52.9875 26.535C52.617 25.47 52.2466 24.3356 52.154 23.1317C52.154 23.0507 52.1308 22.9812 52.1193 22.9233C52.0267 22.6224 51.8414 22.5529 51.691 22.5529C51.4826 22.5529 51.3205 22.6802 51.2395 22.8886C51.1816 23.0391 51.1353 23.1896 51.089 23.3401C50.9385 23.861 50.788 24.3819 50.6491 24.9028C50.3366 25.991 50.024 27.1138 49.6999 28.2135C49.2021 29.8689 48.9127 31.6169 48.8317 33.4111C48.7854 34.4414 48.7044 35.4832 48.6233 36.4903L48.5539 37.4164C48.5076 38.0762 48.4497 38.7361 48.3918 39.3843C48.3571 39.8011 48.3223 40.2062 48.2876 40.623C48.2066 41.6416 48.2645 42.6487 48.4728 43.598C46.7596 41.4101 44.9422 38.875 43.7267 36.0389C43.8888 35.6453 44.1203 35.3328 44.3634 34.997L44.4097 34.9392C44.6412 34.615 44.8727 34.3025 45.1042 33.9899C45.3473 33.6542 45.5904 33.3301 45.8335 32.9944C47.2574 31.0149 48.2066 28.8386 48.6581 26.5235C48.9127 25.2501 48.9359 24.0115 48.7275 22.8423C48.577 21.9857 48.3108 21.1059 47.9172 20.1567C47.4657 19.0801 46.968 17.7952 46.7133 16.4292C46.6207 15.943 46.5512 15.4453 46.4818 14.9707C46.447 14.7391 46.4123 14.5076 46.3776 14.2877V14.1951C46.3429 14.0677 46.3313 13.9404 46.2966 13.8246C46.2503 13.6047 46.0882 13.4774 45.8914 13.4774C45.6599 13.4889 45.5094 13.6394 45.4747 13.8825C45.4631 13.9867 45.4515 14.0793 45.4515 14.1835C45.3705 15.5842 45.139 16.9965 44.7685 18.5129C44.5833 19.2769 44.3981 20.0409 44.2129 20.8049C44.155 21.048 44.0971 21.2911 44.0392 21.5458C43.6457 20.3882 43.1942 19.3579 42.6617 18.4087C42.0019 17.2164 41.4115 16.2787 40.7864 15.48C40.1034 14.6002 39.3163 13.8246 38.4712 13.1764C37.6725 12.5744 37.0937 12.0535 36.6191 11.521C35.7393 10.5371 35.0679 9.68045 34.4775 8.84698C34.3155 8.61546 34.165 8.37237 34.0145 8.14085C33.9334 8.01352 33.8524 7.8746 33.7598 7.74727L33.7367 7.71254C33.6325 7.55048 33.5167 7.37684 33.401 7.21477C33.262 7.02956 33.0421 6.97168 32.8453 7.05271C32.6601 7.13374 32.5559 7.30738 32.5675 7.5389C32.5675 7.71254 32.5906 7.8746 32.6254 8.02509C32.9842 10.0046 33.2389 12.0419 33.4936 14.0099L33.5167 14.1603C33.7251 15.8273 34.1187 17.3553 34.7206 18.8254C35.4846 20.7123 36.2486 22.333 37.059 23.7915L37.5567 24.6945C38.0892 25.6553 38.6217 26.6161 39.1542 27.5769C39.7677 28.6766 40.3002 29.6721 40.7401 30.7371C41.2494 32.0105 41.7935 33.3533 42.3723 34.8581C43.1132 36.7566 43.9466 38.4351 44.919 39.9863C45.8451 41.468 46.9332 43.0308 48.3571 44.9061C48.7622 45.4385 49.26 46.11 49.7346 46.8392C48.959 46.2141 48.0098 45.7048 46.8754 45.3228C46.285 45.1144 45.683 44.9061 45.0927 44.6861L45.0116 44.6514C44.6759 44.524 44.3286 44.3967 44.0161 44.2231C43.6804 44.0379 43.3563 43.8295 43.0321 43.6211C42.9048 43.5401 42.7775 43.4591 42.6617 43.378C42.6038 43.2623 42.546 43.1581 42.4996 43.0423C42.3607 42.7645 42.2103 42.4867 42.0829 42.1973C41.7009 41.3407 41.2379 40.4609 40.578 39.3265C39.5131 37.4975 38.2281 35.8537 37.221 34.6266C36.7348 34.0247 36.1676 33.4806 35.5425 32.9944C34.4081 32.1146 33.1579 31.5127 31.815 31.1886C30.8427 30.957 29.8703 30.7255 28.8979 30.5056C28.2381 30.3551 27.6824 30.1815 27.1847 29.9615C26.7795 29.7879 26.3859 29.6142 25.9808 29.429L25.1936 29.0817C25.0663 29.0239 24.9274 28.9544 24.7769 28.9197C24.6264 28.8849 24.4064 28.9428 24.3138 29.0817C24.2212 29.2207 24.2444 29.4406 24.3138 29.5679C24.3833 29.6837 24.4759 29.7763 24.5569 29.8689L25.3557 30.7487C25.8534 31.2927 26.3396 31.8368 26.8258 32.3925C28.1107 33.8395 29.1989 35.0318 30.2639 36.1199C31.653 37.5438 33.2273 38.7592 34.9521 39.72C37.4988 41.1439 39.5709 42.4057 41.4694 43.6906C42.5344 44.4199 43.7498 45.0218 45.0579 45.4964C45.4399 45.6353 45.8335 45.7743 46.2155 45.9132L46.8985 46.1563C46.8985 46.1563 46.9564 46.1794 46.9911 46.191C44.0161 45.4386 41.5157 44.8134 38.9921 44.1536C38.367 43.9916 37.7767 44.0147 37.1284 44.2346C33.4357 45.4733 29.5346 46.7814 24.4759 48.4483C24.0476 48.5872 23.6887 48.8303 23.3299 49.2239C18.7921 54.2015 14.2428 59.1676 9.69341 64.1221L7.12355 66.9235C6.93834 67.1319 6.74155 67.3402 6.54476 67.537C6.29009 67.8033 6.19748 68.1158 6.27851 68.4515L9.20722 81.0114L9.27668 81.0462C9.35771 81.0809 9.43874 81.1272 9.51977 81.1735C9.72814 81.2777 9.94809 81.3934 10.1912 81.4861C11.1288 81.8796 12.0781 82.2616 13.0273 82.6436C14.0228 83.0488 15.0299 83.4655 16.0255 83.8707C18.4448 84.8662 20.8642 85.8733 23.272 86.8689C25.9692 87.9802 28.6664 89.103 31.352 90.2143C35.2415 91.8234 39.1426 93.4324 43.0437 95.0299L44.9653 95.8171C44.9653 95.8865 44.9538 95.9444 44.9422 96.0139C44.5023 99.3709 44.0508 102.739 43.6109 106.073C45.3358 108.909 46.968 111.584 48.5886 114.246C50.6028 117.557 52.617 120.867 54.6428 124.178C54.8512 124.525 54.9901 125 55.6152 125C55.8004 124.815 56.0319 124.595 56.2403 124.352C59.2153 120.81 62.1788 117.244 65.1654 113.725C65.802 112.973 66.2998 112.174 66.5776 111.225C67.0638 109.604 67.5616 107.983 68.0593 106.374C68.0825 106.397 68.1172 106.432 68.1404 106.455L68.395 106.71C68.7539 107.057 69.1128 107.416 69.4137 107.81C70.2819 108.956 71.4395 109.824 73.037 110.553C74.3798 111.167 75.8036 111.491 77.0191 111.722C78.8829 112.081 81.0707 112.556 83.2238 113.343C83.6521 113.505 84.1036 113.609 84.5666 113.725C85.9789 114.072 87.368 113.933 88.6645 113.725C89.0813 113.656 89.4633 113.494 89.8105 113.227C89.9842 113.088 90.0999 112.903 90.1115 112.695C90.1231 112.498 90.0652 112.301 89.9147 112.151C89.7642 111.989 89.5674 111.827 89.3359 111.688C88.8382 111.375 88.2709 111.213 87.7384 111.051L87.206 110.901C86.2567 110.623 85.2843 110.345 84.3698 109.94L84.1268 109.836C83.2701 109.454 82.3904 109.06 81.5453 108.643C80.7466 108.261 79.89 107.995 79.0102 107.879L78.6745 107.833C78.4661 107.798 78.2462 107.775 78.0378 107.74C76.093 107.486 74.1483 106.965 72.2498 106.178L71.9141 106.039C70.907 105.622 69.8652 105.182 68.7307 104.951C69.7379 104.302 70.7102 103.909 71.6942 103.77C72.4698 103.654 73.2454 103.747 73.9746 103.851C74.1367 103.874 74.2988 103.897 74.4608 103.92C75.0049 104.001 75.5606 104.094 76.1162 104.105C78.1883 104.152 80.0404 103.955 81.7537 103.492C83.4322 103.04 85.076 102.601 86.7545 102.276C88.9308 101.86 90.9334 100.818 93.0634 99.0236C93.2023 98.9079 93.3296 98.7689 93.4107 98.6185C93.5033 98.4448 93.5148 98.2364 93.4338 98.0628C93.3528 97.8892 93.2023 97.7734 93.0171 97.7271C92.7856 97.6808 92.554 97.6692 92.3457 97.6924L92.1373 97.7155C91.4543 97.785 90.7482 97.8544 90.0652 97.9471C88.2015 98.2249 86.0136 98.5027 83.8258 98.468C83.3975 98.468 82.9692 98.4795 82.5524 98.5027C82.263 98.5143 81.9736 98.5258 81.6842 98.5258C80.7003 98.5374 79.7047 98.6995 78.6282 98.9889C77.459 99.313 76.394 99.614 75.329 99.8687C74.0673 100.17 72.9328 100.563 71.8678 101.084C73.9862 98.2943 76.5098 95.6319 79.7742 92.7379C79.8784 92.7495 79.971 92.7726 80.0752 92.7842C80.3761 92.8305 80.654 92.8652 80.9318 92.9347C81.6611 93.0967 82.3209 93.2588 82.9807 93.4556C84.3235 93.8607 85.7011 93.8839 87.0786 93.525C87.6806 93.363 88.2941 93.1778 88.8845 92.9925L89.2781 92.8768C90.2504 92.5758 91.2112 92.2748 92.1836 91.9623C92.3109 91.9276 92.4267 91.8812 92.554 91.8465C92.9823 91.7076 93.4338 91.5803 93.8505 91.3719C95.1702 90.7584 96.432 90.1101 97.3928 89.6124C97.9369 89.3345 98.3536 89.0567 98.7124 88.7673C99.8932 87.7949 101.051 86.7994 102.417 85.6071C102.614 85.4334 102.81 85.1904 102.984 84.901C103.158 84.6116 103.181 84.3222 103.042 84.0906C102.915 83.8591 102.637 83.7434 102.313 83.7318C102.139 83.7318 101.954 83.7549 101.745 83.8012L101.282 83.8939C100.773 83.998 100.24 84.1022 99.7196 84.2296C98.5504 84.519 97.3465 84.8431 96.0384 85.2019C93.7695 85.827 91.6743 86.7763 89.8453 88.0265L89.5096 88.258C89.035 88.5821 88.5603 88.8947 88.0857 89.2072C87.449 89.6239 86.8587 89.9828 86.2915 90.3301C85.3538 90.8857 84.3004 91.1983 83.1544 91.233C82.6798 91.2446 82.1936 91.2909 81.7305 91.314C81.4874 91.3372 81.2443 91.3488 81.0128 91.3603C81.0707 91.2677 81.1402 91.1867 81.198 91.0941C81.4874 90.6774 81.7768 90.2838 82.0431 89.8786C82.8881 88.6168 83.8721 87.4361 84.8213 86.2901C85.3307 85.6765 85.921 85.0977 86.4882 84.5421C86.7429 84.299 86.9976 84.0443 87.2407 83.7897C87.4259 83.6044 87.6343 83.4887 87.9121 83.4308C88.4214 83.315 88.815 83.2225 89.1854 83.1183C90.9566 82.5973 92.7277 81.7176 94.603 80.4211L95.4249 79.8538C97.1381 78.6615 98.9208 77.4345 100.669 76.2421C101.896 75.4087 102.972 74.3553 103.864 73.1166C105.114 71.3687 106.376 69.6091 107.626 67.8612C107.788 67.6296 107.985 67.3634 108.135 67.074C108.274 66.8077 108.286 66.5531 108.147 66.3447C108.02 66.1479 107.788 66.0553 107.51 66.0785L107.394 66.1595ZM46.0535 27.8663C46.4007 26.3151 46.5744 24.6713 46.586 22.9696C46.586 22.2635 46.5281 21.5574 46.4702 20.8744C46.4586 20.666 46.4355 20.4577 46.4239 20.2609C46.3892 19.7399 46.3429 19.219 46.2966 18.7097C46.285 18.5245 46.2618 18.3393 46.2503 18.154C46.5049 19.0222 46.8406 19.9136 47.2458 20.8628C47.5815 21.65 47.813 22.4603 47.9288 23.2938C48.0677 24.2546 48.0445 25.2733 47.8477 26.3151C47.4426 28.4566 46.5744 30.5056 45.2779 32.3809C45.0811 32.6587 44.8843 32.9365 44.6759 33.2028C44.7685 32.925 44.8727 32.6356 44.9422 32.3462L45.0348 31.9873C45.3821 30.6445 45.7409 29.2554 46.0419 27.8778L46.0535 27.8663ZM44.5949 24.0462C44.5602 23.8378 44.5486 23.5947 44.5602 23.3516C44.6065 22.4719 44.7685 21.5226 45.0695 20.4577C45.1853 20.0293 45.2895 19.601 45.4052 19.1612C45.4284 19.057 45.4631 18.9412 45.4862 18.837C45.4978 18.9644 45.5094 19.0917 45.521 19.219C45.602 20.0872 45.6946 20.9786 45.7525 21.8583C45.8682 23.4211 45.7525 25.1228 45.3821 27.0675C45.0464 28.8849 44.6528 30.5172 44.2013 32.022C44.4328 30.8529 44.618 29.5679 44.757 27.9936C44.8727 26.755 44.8148 25.47 44.5833 24.0462H44.5949ZM42.4186 32.9481C41.8745 31.4432 41.3189 30.1467 40.7401 29.0123C40.2539 28.0515 39.7098 27.0907 39.1889 26.1762L39.1658 26.1299C37.6725 23.479 36.1329 20.6081 35.0216 17.5174C34.709 16.6376 34.4775 15.6652 34.2923 14.3687C34.165 13.4426 34.0376 12.4934 33.9219 11.5789C34.3733 12.7133 34.9058 13.8594 35.4846 15.0054C36.2371 16.4987 37.1053 17.9804 38.0313 19.4042C38.3786 19.9252 38.7259 20.4461 39.0847 20.967C39.3163 21.3027 39.5362 21.6384 39.7677 21.9741C40.8096 23.5369 41.4925 25.2964 41.863 27.3801C42.1639 29.0817 42.3607 30.7834 42.4533 32.4272C42.4649 32.6934 42.4881 32.9597 42.5112 33.2144C42.4765 33.1217 42.4418 33.0291 42.407 32.9365L42.4186 32.9481ZM43.2637 32.3693C43.2174 31.7326 43.1711 31.0844 43.1132 30.4361C42.9395 28.584 42.6733 27.0559 42.3029 25.6437C41.9556 24.324 41.4231 23.097 40.7401 22.0088C40.3813 21.4416 39.9992 20.8744 39.6288 20.3303C39.3857 19.9599 39.1311 19.601 38.888 19.2306C37.441 17.0312 36.3181 15.0054 35.4499 13.0375C35.0795 12.1924 34.6859 11.2895 34.2692 10.294C34.1997 10.1319 34.1418 9.96985 34.0955 9.81936L34.3386 10.1203C34.8016 10.7107 35.2878 11.3127 35.7856 11.903C36.4802 12.7365 37.3252 13.4195 37.985 13.9057C38.8069 14.5308 39.5362 15.2601 40.2076 16.1514C40.9137 17.0775 41.562 18.1425 42.1987 19.4042C42.6964 20.3882 43.0669 21.3027 43.3331 22.1941C43.9003 24.1388 44.1087 25.9331 43.9929 27.681C43.8888 29.1628 43.6688 30.7255 43.2984 32.5661C43.2984 32.5082 43.2984 32.4503 43.2868 32.3925L43.2637 32.3693ZM38.7838 41.1554C37.522 40.3914 36.2139 39.6158 34.9174 38.8634C33.5167 38.0531 32.3244 37.1502 31.2594 36.0968C29.8008 34.6613 28.4233 33.1333 27.1384 31.6516C28.2381 32.3462 29.5114 32.9828 31.0742 33.6079C31.2131 33.6658 31.3636 33.7237 31.5025 33.7816C31.734 33.8742 31.9655 33.9784 32.1971 34.0594C33.1694 34.4298 34.0492 34.997 34.9174 35.8074C35.7624 36.5945 36.538 37.4396 37.2442 38.3078C38.0892 39.3612 38.9343 40.4377 39.7446 41.4796L40.1034 41.9426C39.6635 41.6764 39.2237 41.4101 38.7838 41.1439V41.1554ZM39.0847 39.3612C38.2513 38.2962 37.302 37.0807 36.2371 36.0042C35.8203 35.5874 35.4499 35.2401 35.1026 34.9276C34.3733 34.2793 33.5283 33.7584 32.6022 33.3764C31.7456 33.0291 30.8774 32.6587 30.0092 32.2883C29.2799 31.9757 28.5275 31.5821 27.7403 31.0844C28.076 31.1886 28.4233 31.2812 28.8053 31.3622C29.604 31.5358 30.4028 31.7326 31.2015 31.9178L31.3752 31.9641C33.5283 32.4735 35.2878 33.6195 36.7464 35.4601C37.6378 36.583 38.7375 37.9836 39.6057 39.4538C39.9529 40.0442 40.2771 40.6693 40.6012 41.2712C40.0919 40.6345 39.5825 39.9979 39.0847 39.3496V39.3612ZM69.4948 106.235C70.1546 106.49 71.0228 106.814 71.891 107.185C73.7084 107.937 75.6416 108.458 77.6442 108.747H77.7484C78.0147 108.805 78.2809 108.84 78.5587 108.875C79.4269 108.967 80.3067 109.234 81.3022 109.708C82.3209 110.183 83.5364 110.75 84.7866 111.248C85.3075 111.456 85.8516 111.618 86.3725 111.769C86.6387 111.85 86.9166 111.931 87.1828 112.012C87.6111 112.151 88.0394 112.301 88.4677 112.452C88.6298 112.51 88.7571 112.579 88.8729 112.672L88.815 112.695C88.514 112.787 88.2015 112.88 87.8889 112.926C86.2915 113.135 84.856 112.996 83.5132 112.498C81.3138 111.676 78.9986 111.178 77.0191 110.796C75.6879 110.542 74.6924 110.264 73.7779 109.893C72.8055 109.5 71.9257 108.979 71.1617 108.354C70.8954 108.134 70.6639 107.891 70.4324 107.636C69.9809 107.15 69.5411 106.652 69.1012 106.154L69.0549 106.097C69.2169 106.143 69.3674 106.189 69.5179 106.247L69.4948 106.235ZM79.2186 36.444C79.4038 31.7095 79.589 26.9865 79.7858 22.2519C79.8089 21.731 79.8668 21.2101 79.9131 20.5387C80.133 20.7702 80.272 20.8512 80.3183 20.967C82.5524 26.8476 84.775 32.7397 87.0323 38.6782C85.7821 40.1599 84.393 41.4101 83.0849 42.7529C81.8116 44.0494 80.5151 45.3344 79.2533 46.5961C78.6976 46.4572 78.8365 46.0868 78.8481 45.7974C78.9639 42.6835 79.0912 39.558 79.2186 36.444ZM78.0378 19.1843C78.2114 19.0222 78.4545 18.9181 78.8365 18.6981C78.4661 27.9589 78.0957 37.0344 77.7253 46.11C77.7253 46.2489 77.6095 46.3994 77.459 46.7582C72.7476 42.3593 68.1519 38.0878 63.6258 33.7931C63.7068 33.006 64.274 32.6934 64.6792 32.2999C68.233 28.7808 71.8099 25.2848 75.3753 21.7773C76.2551 20.9091 77.1349 20.0409 78.0262 19.1843H78.0378ZM59.6668 98.3059C58.3471 100.644 57.0159 102.983 55.6847 105.321C55.6036 105.46 55.4763 105.564 55.3258 105.749C53.4389 105.622 51.552 105.286 49.5726 104.997C49.5841 104.58 49.5494 104.268 49.6073 103.967C50.3018 100.32 50.9964 96.6621 51.691 93.0157C53.2653 89.2188 54.8512 85.4219 56.4255 81.625L58.2661 77.1914C59.3774 74.5289 60.4771 71.8664 61.5884 69.204C62.0167 68.1621 62.445 67.1319 62.8733 66.09C63.8341 63.7748 64.8181 61.3671 65.8136 59.0171C66.0914 58.3689 66.0799 57.8595 65.7789 57.2923C64.9686 55.7759 64.1698 54.2131 63.4058 52.6967C63.0122 51.9327 62.6186 51.1571 62.2251 50.3931C62.1325 50.2078 62.0167 50.0458 61.9125 49.8953C61.8778 49.8374 61.8315 49.7795 61.7968 49.7332L61.762 49.6753L60.0141 49.2818C60.6739 45.8437 61.3221 42.4057 61.982 38.9676C62.2019 37.81 62.4103 36.6408 62.6302 35.4832C62.6649 35.2864 62.7807 35.1012 62.8502 34.9507C62.9543 34.916 63.0006 34.8813 63.047 34.8929C63.0933 34.8929 63.1627 34.916 63.1974 34.9507C67.7584 39.1991 72.3077 43.4591 76.8686 47.719C77.0654 47.8927 77.2275 48.101 77.459 48.3441C77.0654 49.9184 76.6834 51.4812 76.2667 53.0324C74.7039 59.0171 73.1296 65.0019 71.5668 70.9867C70.7218 74.2164 69.8305 77.4229 69.0433 80.6642C68.6497 82.2616 67.9089 83.6739 67.1217 85.0746C64.6329 89.4734 62.144 93.8839 59.6552 98.2828L59.6668 98.3059ZM66.7281 89.4735C65.6631 93.5829 64.575 97.6924 63.4868 101.802C63.1627 103.052 62.8386 104.302 62.4913 105.541C62.3987 105.9 62.2482 106.235 62.0862 106.675C60.2108 106.525 58.5323 106.235 56.8307 105.992C57.2937 104.511 64.8991 90.8741 66.8786 87.9223C67.0522 88.5126 66.8323 89.0104 66.7165 89.4735H66.7281ZM64.3319 58.5425C64.3319 58.8088 64.1814 59.0171 64.0193 59.2487C63.9615 59.3297 63.892 59.4223 63.8457 59.5033C62.0398 62.4668 60.234 65.4186 58.4166 68.3589L57.0738 70.5468C55.9509 72.3758 54.828 74.1932 53.7052 76.0222C53.6126 76.1843 53.5084 76.3347 53.381 76.5084L53.3 76.6357C52.1771 75.3276 46.5049 67.456 45.4515 65.7543C45.9261 65.0714 46.4702 64.4231 47.0143 63.7864C47.2921 63.4507 47.5815 63.115 47.8477 62.7793C48.4381 62.0385 49.0516 61.2976 49.6536 60.5799C49.8967 60.2789 50.1513 59.9895 50.3944 59.6885L52.8485 56.7135C54.6081 56.8524 63.047 58.1952 64.3435 58.5309L64.3319 58.5425ZM53.0453 49.548C53.0453 49.3859 53.0685 49.2123 53.1032 49.0387C53.1032 49.0039 53.1148 48.9692 53.1264 48.9345C54.284 49.0965 59.7478 50.3583 61.1832 50.8098L61.6347 51.6664C62.5723 53.4375 63.5447 55.2665 64.5055 57.0955C64.5055 57.1187 64.5171 57.165 64.5171 57.2113C63.0585 57.1418 55.2795 55.9495 53.3695 55.5096C53.3695 55.4865 53.3579 55.4633 53.3463 55.4402C53.3116 55.336 53.2653 55.2202 53.2653 55.116C53.1727 53.0555 53.1032 51.2381 53.0453 49.5596V49.548ZM52.1308 77.1682C52.1887 77.2493 52.2234 77.3419 52.2697 77.4113C52.2697 77.4229 52.2813 77.446 52.2929 77.4576C52.2929 77.4692 52.2929 77.4808 52.2929 77.4923C52.2929 77.5155 52.2929 77.5271 52.2929 77.5387C52.2929 77.5502 52.2697 77.5618 52.2697 77.5618L52.073 77.6428C51.8067 77.7586 51.5405 77.8744 51.2742 77.9901C45.4284 80.3285 39.5709 82.6668 33.7135 85.0051C33.7019 85.0051 33.644 85.0051 33.6093 85.0051C33.5862 85.0051 33.563 85.0051 33.5399 85.0051C33.3199 81.6713 33.1231 78.3258 32.9263 75.0845C32.8337 73.4755 32.7411 71.878 32.6369 70.2805L32.6948 70.1879C32.6948 70.1879 32.7295 70.13 32.7527 70.1069L32.7759 70.0722L32.8569 70.0374C33.0074 69.9796 33.1694 69.9101 33.3315 69.8638C36.3991 68.9261 39.4552 67.9885 42.5344 67.0393L44.3981 66.472C44.3981 66.472 44.456 66.5183 44.4791 66.5531C44.5717 66.6341 44.6643 66.7151 44.7338 66.8077C47.2111 70.2574 49.6767 73.707 52.1424 77.1566L52.1308 77.1682ZM34.5701 85.8849C34.5701 85.8849 34.6396 85.8618 34.6627 85.8502C35.7393 85.4103 36.8274 84.982 37.904 84.5421L42.4186 82.7363C45.3821 81.5439 48.3571 80.3516 51.3205 79.1709C51.5636 79.0782 51.8183 78.9856 52.0961 78.8815C52.1656 78.8583 52.235 78.8352 52.3161 78.8004C52.0382 80.9072 49.3758 94.0807 48.9011 95.6897C48.6349 95.6782 48.415 95.5161 48.195 95.3425C48.114 95.273 48.033 95.2151 47.9403 95.1572C44.8148 93.0967 41.6893 91.0362 38.5638 88.9757L36.4107 87.5518C35.8782 87.2046 35.3573 86.8573 34.8479 86.5216L34.3039 86.1627C34.3039 85.9775 34.4081 85.9428 34.5701 85.8849ZM50.9269 91.8002C50.9269 91.8002 50.9617 91.7076 50.9732 91.6613C51.3089 90.0175 51.6446 88.3737 51.9804 86.73C52.4897 84.218 53.0106 81.706 53.5084 79.194C53.6589 78.4647 53.902 77.828 54.2724 77.2261C56.1245 74.2279 57.9767 71.2182 59.8173 68.2084L62.2598 64.2263C62.4219 63.9716 62.5955 63.6707 62.7807 63.4276C58.8217 72.9314 54.8628 82.4237 50.9038 91.9044C50.9038 91.8812 50.9154 91.8465 50.9385 91.8002H50.9269ZM56.6918 28.0515C60.8012 26.1762 64.8991 24.3009 69.0201 22.4487C70.7797 21.65 72.5624 20.8975 74.3451 20.1335C74.7271 19.9715 75.1322 19.8441 75.6416 19.6589C75.5258 19.9367 75.5027 20.1104 75.4101 20.2146C74.0788 21.731 63.5216 31.9294 62.6071 32.5893C60.2919 31.5011 58.0693 30.112 55.7657 28.8849C55.8583 28.2598 56.3445 28.202 56.7033 28.0399L56.6918 28.0515ZM54.4345 31.7558C54.5155 31.1307 54.4808 30.4709 54.8165 29.8689C54.9901 29.8805 55.1753 29.8458 55.2911 29.9152C57.4558 31.096 59.6089 32.2999 61.8083 33.5153C61.7504 34.0825 61.7273 34.5572 61.6347 35.0202C60.7433 39.6737 59.8636 44.3388 58.9722 48.9924C59.0417 49.0387 59.1111 49.085 59.1806 49.1313L58.8102 49.0502C56.6455 48.5641 54.5155 48.0779 52.3855 47.5917C53.0685 42.4172 53.7515 36.9418 54.446 31.7674L54.4345 31.7558ZM51.2858 47.3254C51.1237 47.2907 50.9732 47.2444 50.8112 47.2097C50.5218 46.7351 50.2092 46.2489 49.8619 45.7048C49.7578 45.5427 49.7346 45.4154 49.8041 45.2533C49.8619 45.1144 49.9198 44.9639 49.9777 44.8134C50.0703 44.5588 50.1629 44.3273 50.2787 44.0957C50.6144 43.4591 50.9848 42.8108 51.3437 42.1973C51.6446 41.6879 51.9109 41.2018 52.1656 40.7271C51.8762 42.9266 51.5868 45.1144 51.2974 47.3139L51.2858 47.3254ZM51.5405 35.8074C51.7836 34.4298 51.9109 32.925 51.934 31.1886C51.9456 30.1236 51.9456 29.0702 51.9572 28.0052C51.9572 27.3569 51.9572 26.7087 51.9572 26.0604C52.0035 26.1993 52.0498 26.3498 52.0961 26.4887C52.3161 27.218 52.5013 27.8315 52.6749 28.4682C52.8833 29.2091 53.0106 30.0194 53.0916 31.0381C53.1495 31.7674 53.1727 32.4851 53.1495 33.2028C52.9527 34.6613 52.7675 36.1315 52.5707 37.5901C52.3739 38.3193 52.1308 38.9792 51.8299 39.5811C51.5057 40.2062 51.1585 40.8313 50.8343 41.4333L50.5449 41.9542C50.3481 42.313 50.1514 42.6603 49.9546 43.0076C50.024 42.6719 50.105 42.3246 50.1977 41.9889C50.6954 40.1831 51.1237 38.2036 51.552 35.7842L51.5405 35.8074ZM49.3526 41.9889C49.2716 42.2899 49.2021 42.5909 49.1442 42.8918C49.1442 42.915 49.1442 42.9381 49.1327 42.9613C49.0285 42.2899 49.0053 41.6764 49.0516 41.086C49.0979 40.4377 49.1558 39.7895 49.2021 39.1412C49.2484 38.6435 49.2831 38.1457 49.3179 37.6479C49.341 37.2891 49.3758 36.9187 49.4105 36.5598C49.4915 35.6337 49.5726 34.6845 49.6073 33.7353C49.6883 31.7442 49.9893 29.9268 50.5334 28.1904C50.7186 27.6 50.8922 26.9865 51.0543 26.3961C51.089 26.2456 51.1353 26.1067 51.17 25.9562C51.1585 27.6579 51.1469 29.348 51.1237 31.0497C51.1006 33.0754 50.8922 35.1244 50.4755 37.1154C50.1629 38.6203 49.8156 40.322 49.3526 41.9773V41.9889ZM14.7174 60.3831C14.7984 60.2442 14.8794 60.1169 14.972 60.0127C16.1528 58.7046 17.3451 57.4081 18.5259 56.1116C20.3317 54.1321 22.1376 52.1526 23.9434 50.1615C24.2444 49.8374 24.5917 49.6175 25.0894 49.4554C29.523 47.9853 33.5167 46.654 37.2789 45.3922C37.7882 45.2186 38.2513 45.1955 38.7259 45.3228C40.3812 45.7511 42.0366 46.1678 43.6804 46.5846C45.0464 46.9318 46.4007 47.2675 47.7667 47.6264C48.6928 47.8695 49.6304 48.1126 50.5912 48.3673C51.008 48.483 51.4247 48.5872 51.8646 48.703L51.8993 49.2007C51.9225 49.6059 51.9456 49.9879 51.9688 50.3699C51.9919 50.8445 52.0035 51.3307 52.0151 51.8053C52.0382 52.7661 52.073 53.7501 52.1424 54.7225C52.2003 55.4286 52.0035 55.9842 51.5057 56.5862C49.4915 58.9824 47.3731 61.5523 45.0348 64.4463C44.5254 65.0714 43.9235 65.4649 43.1479 65.708C39.7561 66.7151 36.4223 67.757 32.718 68.903C32.0813 69.0998 31.4562 69.1461 30.7732 69.0303C27.6709 68.521 24.5454 68.0579 21.906 67.6644H21.825C20.6134 67.4792 19.6217 66.8926 18.85 65.9048L17.7271 64.481C16.9052 63.4276 16.0833 62.3857 15.2499 61.3323C15.0994 61.1471 14.9605 60.9503 14.81 60.742L14.6479 60.522C14.6479 60.522 14.7058 60.441 14.729 60.3947L14.7174 60.3831ZM10.0986 79.0204C10.0407 79.0898 9.97124 79.1593 9.86705 79.2635C9.85548 79.275 9.83233 79.2982 9.82075 79.3098C9.7976 79.2519 9.78602 79.2056 9.77445 79.1593C9.70499 78.9509 9.64711 78.7889 9.61238 78.6152C9.39244 77.6197 9.16092 76.6242 8.94098 75.617C8.46636 73.4986 7.98017 71.3108 7.47083 69.1577C7.32035 68.5441 7.4361 68.139 7.87599 67.6759C9.10304 66.3794 10.3417 65.0482 11.534 63.7517C12.1012 63.1382 12.6684 62.5246 13.2472 61.9111C13.3746 61.7722 13.5019 61.6565 13.6524 61.5291C13.6871 61.4944 13.7334 61.4597 13.7681 61.4249C13.7797 61.4249 13.8029 61.4365 13.8145 61.4481C13.8839 61.4828 13.9418 61.506 13.9649 61.5291C15.3309 63.2539 16.6969 64.9903 18.0744 66.7267L18.7921 67.6412C18.7921 67.6412 18.7342 67.7454 18.7111 67.7917C18.6416 67.9422 18.5722 68.0695 18.4911 68.1853C15.7013 71.797 12.9 75.3971 10.0986 78.9972V79.0204ZM11.2446 80.4442C11.1057 80.4095 10.9668 80.3516 10.8163 80.2937C10.7816 80.2822 10.7584 80.2706 10.7237 80.259C10.7237 80.2358 10.7237 80.2243 10.7237 80.2011C10.7237 80.1317 10.7468 80.0622 10.7584 80.0506C13.4324 76.5894 16.1181 73.1282 18.7574 69.7017L19.6256 68.5904C20.9568 68.6252 29.8587 69.9796 31.4215 70.3731C31.572 71.114 31.6067 71.9012 31.6298 72.6536C31.6414 73.0703 31.6646 73.5102 31.6993 73.9385C31.7687 74.7836 31.8151 75.6518 31.8614 76.4852C31.8845 76.8904 31.9077 77.284 31.9308 77.6891C31.954 78.129 31.9887 78.5805 32.0118 79.0204C32.0581 79.8307 32.116 80.6294 32.1508 81.4397C32.1739 81.8102 32.1971 82.1922 32.2202 82.5626C32.2781 83.3614 32.336 84.1717 32.3128 84.982C30.3565 84.7505 15.7245 81.625 11.233 80.4674L11.2446 80.4442ZM30.4722 88.6979C27.7866 87.5634 25.0547 86.4406 22.4038 85.3524C20.1581 84.4379 17.8545 83.4887 15.574 82.5279L20.1465 83.5581C23.7582 84.3685 27.4972 85.2019 31.1784 86.0123C32.1044 86.2206 32.8916 86.5447 33.644 87.0657C36.2139 88.802 38.8416 90.5384 41.3884 92.2054C42.4418 92.8999 43.4952 93.5945 44.5486 94.289C44.6875 94.3817 44.8264 94.4743 44.9653 94.5784C42.546 93.7334 36.156 91.1172 30.4722 88.6979ZM44.8496 104.36C45.1968 101.675 45.5557 98.9889 45.903 96.3033L47.1648 96.8242L47.5699 96.9978C47.9519 97.1599 48.3455 97.322 48.7391 97.4609C48.9243 97.5303 49.0864 97.565 49.2253 97.565C49.4336 97.565 49.5957 97.4956 49.7462 97.3451C49.3295 99.5445 48.9127 101.744 48.496 103.955C48.4497 104.21 48.3455 104.464 48.2182 104.904C47.0722 105.066 46.0187 105.205 44.8496 105.379C44.8496 104.974 44.7917 104.673 44.8264 104.372L44.8496 104.36ZM45.22 106.594C46.065 106.189 46.968 106.201 47.9172 106.097C48.0561 106.328 48.2297 106.536 48.3223 106.779C49.5957 110.264 50.8575 113.748 52.1077 117.244C52.1887 117.476 52.235 117.719 52.3276 118.136C51.3784 117.047 45.9724 108.238 45.22 106.606V106.594ZM56.1361 121.608C55.9856 121.99 55.7773 122.361 55.6268 122.685C55.4763 122.696 55.4184 122.72 55.3721 122.708C55.3258 122.685 55.2795 122.639 55.2563 122.604C53.4158 117.557 51.5636 112.498 49.723 107.451C49.5957 107.104 49.5031 106.745 49.3063 106.12C53.2884 106.664 57.0159 107.162 60.7318 107.671C60.9864 107.706 61.2295 107.833 61.5884 107.96C59.8288 112.591 57.8841 117.071 56.1361 121.631V121.608ZM58.2082 120.404C58.104 120.347 57.9998 120.289 57.8841 120.231C59.3658 116.55 60.8359 112.868 62.3292 109.199C62.3871 109.072 62.526 108.979 62.6302 108.863C63.4174 109.755 64.1119 111.016 64.6792 112.579C62.6071 115.207 60.3845 117.788 58.1966 120.416L58.2082 120.404ZM65.8252 109.627C65.7094 109.974 65.5474 110.299 65.258 111.005C64.5402 109.65 64.0193 108.655 63.4868 107.671C63.1974 107.138 63.3595 106.617 63.4868 106.097C63.9267 104.372 64.3782 102.658 64.8297 100.945C65.9641 96.6274 67.087 92.298 68.2214 87.9802C69.3327 83.7665 70.444 79.5529 71.5553 75.3392C72.6666 71.1256 73.7547 66.9004 74.866 62.6867C75.7689 59.2487 76.6718 55.8222 77.5748 52.3841C77.5979 52.2799 77.6326 52.1758 77.6674 52.0716C77.9799 50.9834 78.1073 49.7911 78.6513 48.8535C79.207 47.9042 80.1794 47.2097 80.9781 46.4109C82.6103 44.7671 84.2425 43.1234 85.8747 41.4912C86.1294 41.2365 86.4188 41.005 86.8355 40.623C86.8587 41.5375 86.604 42.1741 86.4072 42.8108C84.8908 47.7537 83.3396 52.6735 81.8116 57.6164C80.3067 62.5015 78.825 67.3981 77.3317 72.2832C76.1394 76.138 74.9239 79.9928 73.7431 83.8475C72.574 87.656 71.4279 91.4645 70.2472 95.273C69.078 99.0815 67.8857 102.878 66.705 106.687C66.404 107.659 66.1146 108.643 65.8136 109.616L65.8252 109.627ZM74.5997 101.13C75.6184 100.853 76.6603 100.575 77.6674 100.309C78.2114 100.17 78.7555 100.019 79.2996 99.8802C79.9478 99.7066 80.6077 99.614 81.2675 99.5908C81.499 99.5908 81.7421 99.5677 81.9736 99.5677C82.5408 99.5445 83.1196 99.5214 83.6869 99.5214C85.5853 99.5445 87.5764 99.3825 90.1462 98.9773C90.5977 98.9079 91.0723 98.85 91.5238 98.8037L91.79 98.7689L91.6743 98.8615C91.1997 99.2204 90.7019 99.5908 90.2041 99.9265C89.3938 100.471 88.4099 100.887 87.2175 101.2C86.9281 101.269 86.6272 101.339 86.3262 101.397C86.0484 101.455 85.7821 101.512 85.5159 101.57L84.7287 101.767C83.629 102.033 82.4945 102.311 81.3833 102.624C79.8089 103.052 78.061 103.249 76.0352 103.214C75.5374 103.214 75.0049 103.145 74.3451 103.006C73.6852 102.878 73.0602 102.809 72.4698 102.809C71.7984 102.809 71.1617 102.89 70.5482 103.052C71.6826 102.195 73.0023 101.559 74.5997 101.119V101.13ZM76.6371 93.7913C76.5561 94.2196 76.4056 94.5206 76.1278 94.7868C74.565 96.3033 73.0486 97.9702 71.6247 99.7645C71.3122 100.158 71.0112 100.552 70.6987 100.934C70.3051 101.443 69.9115 101.941 69.5063 102.45C69.3558 102.635 69.1938 102.821 69.0201 103.006C69.1243 102.647 69.2401 102.288 69.3558 101.929C69.3558 101.929 69.3558 101.918 69.3558 101.906C70.2819 100.146 71.0344 98.5374 71.6595 97.0094C72.4003 95.192 72.6666 93.4556 72.4929 91.7076C72.4929 91.6845 72.5045 91.6613 72.5161 91.6382C73.3264 89.0104 74.1367 86.3943 74.947 83.7665C75.2017 85.1672 75.4911 86.429 75.8268 87.6213C76.0699 88.4895 76.3246 89.404 76.5561 90.3301C76.8339 91.4414 76.8686 92.599 76.6487 93.7797L76.6371 93.7913ZM77.3548 89.5082C77.2159 88.9525 77.0538 88.3853 76.9149 87.8412C76.5908 86.6489 76.2551 85.4219 76.012 84.1948C75.8152 83.2456 75.711 82.3311 75.6647 81.4397C76.4866 78.7773 77.2969 76.1148 78.1188 73.4523C78.1999 74.8067 78.3504 76.2537 78.5703 77.8512C78.6513 78.4531 78.7208 79.0667 78.7902 79.7265C78.9986 81.8796 78.8134 84.0791 78.223 86.2669C77.9799 87.1583 77.7484 88.0496 77.5053 88.9525L77.3664 89.485L77.3548 89.5082ZM82.6335 92.2748C82.9229 92.2748 83.2122 92.2517 83.5016 92.2401C84.5319 92.1707 85.4696 91.9044 86.2799 91.4414C87.1133 90.9668 87.9237 90.4574 88.7456 89.9365C89.1854 89.6587 89.6137 89.3693 90.0305 89.0914L90.4588 88.802C92.1142 87.6908 93.9663 86.8457 95.9574 86.2901C97.2886 85.9196 98.6546 85.5839 99.9626 85.2598L101.167 84.9588C101.352 84.9125 101.549 84.8778 101.734 84.8547L101.56 85.0167C101.167 85.3987 100.75 85.7923 100.333 86.1512C99.9279 86.51 99.4996 86.8689 99.0829 87.2046L98.5967 87.6097C97.9253 88.1769 97.2191 88.64 96.5014 89.0104C95.5638 89.485 94.5567 90.006 93.5148 90.4806C93.0402 90.7005 92.5309 90.8626 92.0331 91.0246L91.9058 91.0709C90.9566 91.3835 89.9147 91.7076 88.7224 92.0665L88.4677 92.1475C87.8195 92.3443 87.1481 92.5527 86.4767 92.7147C85.4117 92.9694 84.3698 92.9578 83.3743 92.6568C82.9576 92.5295 82.5408 92.4253 82.1241 92.3211H82.101C82.2746 92.3211 82.4482 92.3096 82.6335 92.298V92.2748ZM87.5417 80.7452C87.4606 81.0114 87.3796 81.2661 87.2986 81.5324C86.9281 80.6757 86.5924 79.7149 86.6503 78.6615C86.6735 78.3142 86.685 77.9785 86.7082 77.6313C86.7429 77.0177 86.7776 76.3926 86.8124 75.7791C86.9281 74.008 87.0555 71.9475 86.986 69.9101C86.9744 69.3892 86.9629 68.8798 87.1133 68.4052L87.1365 68.3473C87.1365 68.3473 87.1481 68.301 87.1597 68.2779L87.1828 68.3473L87.4143 69.0419C87.5995 69.5975 87.7848 70.1648 87.97 70.732C88.0278 70.9056 88.0857 71.0793 88.132 71.2529C88.3172 71.8317 88.514 72.4337 88.6414 73.0356C88.9539 74.5636 88.8845 76.1727 88.433 77.8165C88.1552 78.8004 87.8542 79.796 87.5532 80.7568L87.5417 80.7452ZM106.792 67.3055C106.792 67.3055 106.746 67.3634 106.723 67.3865C105.461 69.2155 103.945 71.3571 102.301 73.4523C101.792 74.089 101.178 74.6678 100.414 75.2119C100.044 75.4781 99.6617 75.7328 99.2912 75.9875C99.025 76.1727 98.7472 76.3463 98.4809 76.5431C96.9992 77.5618 95.5291 78.5921 94.0589 79.6223C92.693 80.5715 91.5122 81.243 90.343 81.706C89.8568 81.9028 89.3475 82.0648 88.8497 82.2269C88.6877 82.2848 88.514 82.3311 88.352 82.389H88.3172V82.4006C88.8729 81.6134 89.5559 80.8841 90.1462 80.2474C91.6395 78.6499 93.3644 77.3766 95.0197 76.2421C96.2468 75.3971 97.3349 74.6215 98.3304 73.6491C98.9324 73.0588 99.4996 72.4568 100.078 71.8433C100.819 71.0561 101.63 70.2921 102.498 69.586C103.412 68.8335 104.443 68.1737 105.646 67.5949C106.063 67.3981 106.457 67.2708 106.85 67.2245C106.839 67.2476 106.816 67.2708 106.792 67.3055Z" fill="#00003D"/>
<path d="M23.5387 2.64224C23.6776 2.67697 23.8397 2.67697 23.9902 2.70012C24.1754 2.72327 24.3606 2.74642 24.5458 2.78115C25.0783 2.88533 25.4025 3.20946 25.5877 3.70722C25.7034 4.01978 25.6918 4.33233 25.6687 4.59857C25.6687 4.69118 25.6687 4.72591 25.6687 4.77221C25.6803 4.99215 25.8192 5.17737 25.9349 5.13107C26.0854 5.08476 26.097 4.94585 26.1086 4.80694C26.1202 4.65645 26.1317 4.50597 26.1549 4.35548C26.1896 4.13553 26.2128 3.90402 26.2591 3.68407C26.3748 3.17473 26.6874 2.86218 27.2083 2.76957C27.5208 2.71169 27.8334 2.66539 28.1459 2.59593C28.2038 2.58436 28.2733 2.50333 28.2733 2.44545C28.2733 2.38757 28.227 2.29496 28.1691 2.27181C28.0765 2.2255 27.9607 2.19078 27.845 2.1792C27.5787 2.15605 27.3241 2.14447 27.0578 2.12132C26.4559 2.06344 26.1433 1.79719 25.9928 1.19524C25.9581 1.03318 25.9349 0.859542 25.9118 0.697478C25.8886 0.546991 25.8771 0.396504 25.8423 0.246016C25.8192 0.141833 25.7845 0.0260733 25.6455 0.00292136C25.5414 -0.0202305 25.4835 0.0955289 25.4719 0.303896C25.4488 0.674326 25.4256 1.05633 25.3677 1.42676C25.3214 1.80877 25.0783 2.02871 24.7079 2.09817C24.4648 2.14447 24.2217 2.16762 23.9786 2.20235C23.8281 2.2255 23.6776 2.23708 23.5271 2.27181C23.3767 2.30654 23.2609 2.41072 23.3072 2.48017C23.3535 2.54963 23.4345 2.63066 23.5156 2.64224H23.5387Z" fill="#00003D"/>
<path d="M95.1129 55.88C95.2518 55.9147 95.4139 55.9147 95.5644 55.9379C95.7496 55.961 95.9348 55.9842 96.12 56.0073C96.6525 56.1115 96.9767 56.4357 97.1619 56.9334C97.2776 57.246 97.2661 57.5585 97.2429 57.8248C97.2429 57.9174 97.2429 57.9521 97.2429 57.9984C97.2545 58.2183 97.3934 58.4036 97.5092 58.3573C97.6597 58.311 97.6712 58.172 97.6828 58.0331C97.6944 57.8827 97.706 57.7322 97.7291 57.5817C97.7638 57.3617 97.787 57.1302 97.8333 56.9103C97.9491 56.4009 98.2616 56.0884 98.7825 55.9958C99.0951 55.9379 99.4076 55.8916 99.7202 55.8221C99.778 55.8106 99.8475 55.7295 99.8475 55.6716C99.8475 55.6138 99.8012 55.5212 99.7433 55.498C99.6507 55.4517 99.535 55.417 99.4192 55.4054C99.1529 55.3822 98.8983 55.3707 98.632 55.3475C98.0301 55.2896 97.7175 55.0234 97.567 54.4214C97.5323 54.2594 97.5092 54.0857 97.486 53.9237C97.4629 53.7732 97.4513 53.6227 97.4166 53.4722C97.3934 53.368 97.3587 53.2523 97.2198 53.2291C97.1156 53.206 97.0577 53.3217 97.0461 53.5301C97.0114 53.9005 96.9998 54.2825 96.9419 54.653C96.8956 55.035 96.6525 55.2549 96.2821 55.3244C96.039 55.3707 95.7959 55.3938 95.5528 55.4285C95.4023 55.4517 95.2519 55.4633 95.1014 55.498C94.9509 55.5327 94.8351 55.6369 94.8814 55.7064C94.9277 55.7758 95.0088 55.8569 95.0898 55.8684L95.1129 55.88Z" fill="#00003D"/>
<path d="M31.6984 108.192C31.6058 108.145 31.49 108.111 31.3743 108.099C31.108 108.076 30.8534 108.064 30.5871 108.041C29.9852 107.983 29.6726 107.717 29.5221 107.115C29.4874 106.953 29.4642 106.779 29.4411 106.617C29.4179 106.467 29.4064 106.316 29.3716 106.166C29.3485 106.062 29.3138 105.946 29.1748 105.923C29.0707 105.9 29.0128 106.015 29.0012 106.224C28.978 106.594 28.9549 106.976 28.897 107.347C28.8507 107.729 28.6076 107.949 28.2372 108.018C27.9941 108.064 27.751 108.088 27.5079 108.122C27.3574 108.145 27.2069 108.157 27.0564 108.192C26.906 108.226 26.7902 108.331 26.8365 108.4C26.8828 108.47 26.9638 108.551 27.0449 108.562C27.1838 108.597 27.3458 108.597 27.4963 108.62C27.6815 108.643 27.8668 108.666 28.052 108.701C28.5845 108.805 28.9086 109.129 29.0938 109.627C29.2096 109.94 29.198 110.252 29.1748 110.518C29.1748 110.611 29.1748 110.646 29.1748 110.692C29.1864 110.912 29.3253 111.097 29.4411 111.051C29.5916 111.005 29.6032 110.866 29.6147 110.727C29.6263 110.576 29.6379 110.426 29.661 110.275C29.6958 110.055 29.7189 109.824 29.7652 109.604C29.881 109.095 30.1935 108.782 30.7144 108.689C31.027 108.632 31.3395 108.585 31.6521 108.516C31.71 108.504 31.7794 108.423 31.7794 108.365C31.7794 108.307 31.7331 108.215 31.6752 108.192H31.6984Z" fill="#00003D"/>
<path d="M17.9479 14.2994L18.1563 14.3225C18.3415 14.3457 18.5151 14.3688 18.7003 14.4035L18.8971 14.4383C19.2097 14.4961 19.5107 14.554 19.8116 14.6351C20.5641 14.855 20.9692 15.318 21.0734 16.0589L21.1081 16.302C21.166 16.765 21.2239 17.2396 21.3049 17.7027C21.3512 17.9458 21.6059 18.2004 21.849 18.2236C21.8722 18.2236 21.8837 18.2236 21.9069 18.2236C22.1268 18.2236 22.3815 18.0847 22.4973 17.8879C22.6014 17.7027 22.6709 17.4827 22.7172 17.2281C22.7519 16.985 22.7867 16.7303 22.8098 16.4872C22.833 16.2788 22.8561 16.0821 22.8793 15.8853C23.0066 14.9939 23.377 14.6003 24.2684 14.4267C24.4536 14.392 24.6504 14.3688 24.8588 14.3572C24.9398 14.3572 25.0324 14.3457 25.1134 14.3341C25.1945 14.3341 25.2755 14.3225 25.3681 14.3109C25.5417 14.2994 25.7269 14.2762 25.9122 14.2415C26.0974 14.2067 26.5141 14.1257 26.6299 13.6743C26.6646 13.5238 26.6299 13.3733 26.5488 13.2575C26.4215 13.0839 26.2016 12.9797 25.8427 12.9334L25.4839 12.8871C24.9745 12.8292 24.442 12.7598 23.9327 12.6671C23.4581 12.5861 23.1802 12.2851 23.1108 11.7642C23.0645 11.4864 23.0413 11.2086 23.0182 10.9192C23.0182 10.7918 22.995 10.6529 22.9834 10.5256L22.9603 10.2941C22.9487 10.1089 22.9256 9.92365 22.9024 9.73843C22.8561 9.44903 22.694 9.19436 22.4857 9.09018C22.3468 9.02072 22.1847 9.02072 22.0458 9.09018C21.8722 9.18279 21.6638 9.37958 21.5828 9.62267C21.5249 9.81946 21.4902 10.0163 21.467 10.2015C21.467 10.2825 21.4438 10.3635 21.4323 10.433L21.386 10.6877C21.3512 10.9192 21.3165 11.1507 21.2586 11.3706C21.085 12.1231 20.622 12.5861 19.8232 12.8292C19.337 12.9797 18.8277 12.9334 18.4109 12.8987H18.2489C18.1794 12.8987 18.1216 12.8871 18.0752 12.8871C17.7048 12.8871 17.3807 13.0492 17.2071 13.2691C17.1029 13.4196 17.0681 13.5816 17.1029 13.7553C17.2302 14.2415 17.6701 14.2994 17.9248 14.3225L17.9479 14.2994ZM18.11 13.5469C18.11 13.5469 18.1794 13.5469 18.2257 13.5469H18.3646C18.8045 13.5932 19.4181 13.6511 20.0316 13.4543C21.0734 13.1302 21.7101 12.4704 21.9416 11.4864C21.9995 11.2433 22.0342 11.0002 22.0805 10.7571L22.1268 10.514C22.1384 10.433 22.15 10.3404 22.1616 10.2478C22.1847 10.1089 22.1963 9.96995 22.231 9.84261C22.2542 9.9931 22.2657 10.1436 22.2773 10.2941L22.3005 10.5372C22.312 10.6645 22.3236 10.7918 22.3352 10.9192C22.3583 11.2086 22.3815 11.5096 22.4278 11.8105C22.5551 12.6324 23.0413 13.1533 23.8169 13.2922C24.3494 13.3849 24.8819 13.4543 25.4028 13.5122L25.6343 13.5353C25.5302 13.5469 25.426 13.5585 25.3102 13.5701C25.2176 13.5701 25.1366 13.5816 25.044 13.5932C24.9629 13.5932 24.8819 13.6048 24.8009 13.6164C24.5925 13.6395 24.3726 13.6627 24.1526 13.6974C22.9834 13.9289 22.3815 14.554 22.2194 15.7348C22.1847 15.9431 22.1616 16.1515 22.1384 16.3599C22.1153 16.603 22.0805 16.8345 22.0458 17.0776C22.0226 17.2049 21.9995 17.3091 21.9648 17.4017C21.8953 16.9966 21.849 16.5798 21.8027 16.1747L21.768 15.9316C21.6406 14.9129 21.0387 14.2299 20.02 13.9405C19.6959 13.8479 19.3602 13.79 19.036 13.7321L18.8393 13.6974C18.6425 13.6627 18.4457 13.6395 18.2605 13.6164L18.0289 13.5816C18.0289 13.5816 17.9363 13.5701 17.89 13.5585C17.9479 13.5353 18.0289 13.5122 18.1216 13.5122L18.11 13.5469Z" fill="#00003D"/>
<path d="M95.9577 34.8466L96.166 34.8697C96.3513 34.8929 96.5249 34.9161 96.7101 34.9508L96.9069 34.9855C97.2195 35.0434 97.5204 35.1013 97.8214 35.1823C98.5738 35.4022 98.979 35.8653 99.0832 36.6061L99.1179 36.8492C99.1758 37.3123 99.2337 37.7869 99.3147 38.2499C99.361 38.493 99.6157 38.7477 99.8588 38.7708C99.8819 38.7708 99.8935 38.7708 99.9167 38.7708C100.137 38.7708 100.403 38.6319 100.507 38.4351C100.611 38.2499 100.681 38.03 100.727 37.7753C100.762 37.5322 100.796 37.2775 100.82 37.0344C100.843 36.8261 100.866 36.6293 100.889 36.4325C101.016 35.5412 101.387 35.1476 102.278 34.9739C102.463 34.9392 102.66 34.916 102.869 34.9045C102.95 34.9045 103.042 34.8929 103.123 34.8813C103.204 34.8813 103.285 34.8697 103.378 34.8582C103.552 34.8466 103.737 34.8234 103.922 34.7887C104.107 34.754 104.524 34.673 104.64 34.2215C104.674 34.071 104.64 33.9205 104.559 33.8048C104.431 33.6311 104.211 33.5269 103.852 33.4806L103.494 33.4343C102.984 33.3764 102.452 33.307 101.942 33.2144C101.468 33.1334 101.19 32.8324 101.121 32.3115C101.074 32.0336 101.051 31.7558 101.028 31.4664C101.028 31.3391 101.005 31.2002 100.993 31.0728L100.97 30.8413C100.958 30.6561 100.935 30.4709 100.912 30.2857C100.866 29.9963 100.704 29.7416 100.495 29.6374C100.357 29.568 100.194 29.568 100.056 29.6374C99.8819 29.73 99.6736 29.9268 99.5925 30.1699C99.5346 30.3667 99.4999 30.5635 99.4768 30.7487C99.4768 30.8297 99.4536 30.9108 99.442 30.9802L99.3957 31.2349C99.361 31.4664 99.3263 31.6979 99.2684 31.9179C99.0948 32.6703 98.6317 33.1334 97.833 33.3764C97.3468 33.5269 96.8375 33.4806 96.4207 33.4459H96.2587C96.1892 33.4459 96.1313 33.4343 96.085 33.4343C95.7146 33.4343 95.3905 33.5964 95.2168 33.8163C95.1126 33.9668 95.0779 34.1289 95.1126 34.3025C95.24 34.7887 95.6799 34.8466 95.9345 34.8813L95.9577 34.8466ZM96.1197 34.0942C96.1197 34.0942 96.1892 34.0942 96.2355 34.0942H96.3744C96.8143 34.1405 97.4278 34.1983 98.0414 34.0016C99.0832 33.6774 99.7199 33.0176 99.9514 32.0336C100.009 31.7905 100.044 31.5475 100.09 31.3044L100.137 31.0613C100.148 30.9802 100.16 30.8876 100.171 30.795C100.194 30.6561 100.206 30.5172 100.241 30.3899C100.264 30.5403 100.276 30.6908 100.287 30.8413L100.31 31.0844C100.322 31.2117 100.333 31.3391 100.345 31.4664C100.368 31.7558 100.391 32.0568 100.438 32.3578C100.565 33.1797 101.051 33.7006 101.827 33.8395C102.359 33.9321 102.892 34.0016 103.413 34.0594L103.644 34.0826C103.54 34.0942 103.436 34.1057 103.32 34.1173C103.227 34.1173 103.146 34.1289 103.054 34.1405C102.973 34.1405 102.892 34.152 102.811 34.1636C102.602 34.1868 102.382 34.2099 102.162 34.2446C100.993 34.4762 100.391 35.1013 100.229 36.282C100.194 36.4904 100.171 36.6987 100.148 36.9071C100.125 37.1502 100.09 37.3817 100.056 37.6248C100.032 37.7522 100.009 37.8563 99.9745 37.9489C99.9051 37.5438 99.8588 37.1271 99.8125 36.7219L99.7777 36.4788C99.6504 35.4601 99.0485 34.7771 98.0298 34.4877C97.7056 34.3951 97.3699 34.3373 97.0458 34.2794L96.849 34.2446C96.6522 34.2099 96.4554 34.1868 96.2702 34.1636L96.0387 34.1289C96.0387 34.1289 95.9461 34.1173 95.8998 34.1057C95.9577 34.0826 96.0387 34.0594 96.1313 34.0594L96.1197 34.0942Z" fill="#00003D"/>
<path d="M96.0735 64.4231C95.5989 64.4694 95.1821 64.9209 95.2169 65.3376C95.2516 65.7428 95.7031 66.1132 96.1314 66.1016C96.5944 66.0785 96.9764 65.6502 96.9533 65.1756C96.9301 64.7241 96.5365 64.3884 96.0735 64.4231Z" fill="#00003D"/>
<path d="M109.224 51.3655C108.749 51.4118 108.333 51.8632 108.367 52.28C108.402 52.6851 108.853 53.0556 109.282 53.0324C109.745 53.0093 110.127 52.581 110.104 52.1063C110.081 51.6549 109.687 51.3192 109.224 51.3539V51.3655Z" fill="#00003D"/>
<path d="M29.3384 23.9536C29.8014 23.9304 30.1834 23.5021 30.1603 23.0275C30.1371 22.576 29.7436 22.2403 29.2805 22.2751C28.8059 22.3214 28.3892 22.7728 28.4239 23.1896C28.4586 23.5947 28.9101 23.9651 29.3384 23.9536Z" fill="#00003D"/>
<path d="M15.0181 26.975C15.4811 26.9519 15.8631 26.5236 15.84 26.049C15.8168 25.5975 15.4232 25.2618 14.9602 25.2965C14.4856 25.3428 14.0689 25.7943 14.1036 26.211C14.1383 26.6162 14.5898 26.9866 15.0181 26.9635V26.975Z" fill="#00003D"/>
<path d="M33.5051 100.667C33.0305 100.714 32.6138 101.165 32.6485 101.582C32.6832 101.987 33.1347 102.357 33.563 102.346C34.026 102.323 34.4081 101.894 34.3849 101.42C34.3618 100.968 33.9682 100.633 33.5051 100.667Z" fill="#00003D"/>
<path d="M40.1489 5.97627C40.612 5.95312 40.994 5.52481 40.9708 5.05019C40.9477 4.59873 40.5541 4.26303 40.0911 4.29776C39.6165 4.34406 39.1997 4.79552 39.2344 5.21226C39.2692 5.61741 39.7206 5.98785 40.1489 5.97627Z" fill="#00003D"/>
<path d="M90.3657 50.1268C90.8288 50.1036 91.2108 49.6753 91.1876 49.2007C91.1645 48.7492 90.7709 48.4135 90.3079 48.4483C89.8333 48.4946 89.4165 48.946 89.4512 49.3628C89.486 49.7679 89.9374 50.1384 90.3657 50.1268Z" fill="#00003D"/>
<path d="M38.8997 119.664C38.425 119.71 38.0083 120.161 38.043 120.578C38.0778 120.983 38.5292 121.354 38.9575 121.342C39.4206 121.319 39.8026 120.891 39.7794 120.416C39.7563 119.965 39.3627 119.629 38.8997 119.664Z" fill="#00003D"/>
</svg>
