<svg width="147" height="138" viewBox="0 0 147 138" fill="none" xmlns="http://www.w3.org/2000/svg">
<path d="M0.230356 44.8902C0.230356 44.8902 0.230355 44.8902 0.22739 44.8997C0.218493 44.9284 0.231662 44.9534 0.232316 44.985C0.232316 44.985 0.232316 44.985 0.229351 44.9946C0.226386 45.0041 0.242519 45.0196 0.249104 45.0321L46.4513 137.682C46.4513 137.682 46.4513 137.682 46.4608 137.685C46.4608 137.685 46.4608 137.685 46.4674 137.697C46.4674 137.697 46.474 137.71 46.4806 137.722C46.4806 137.722 46.4901 137.725 46.4967 137.738C46.5063 137.741 46.5129 137.753 46.5224 137.756C46.5224 137.756 46.5224 137.756 46.532 137.759C46.532 137.759 46.5415 137.762 46.5511 137.765C46.5702 137.771 46.5893 137.777 46.6179 137.786C46.6466 137.795 46.6657 137.801 46.6848 137.807C46.6848 137.807 46.6943 137.81 46.7039 137.813C46.7039 137.813 46.7039 137.813 46.7134 137.816C46.723 137.819 46.7325 137.822 46.748 137.805C46.748 137.805 46.7575 137.808 46.7671 137.811C46.7671 137.811 46.7766 137.814 46.7921 137.798C46.7921 137.798 46.7921 137.798 46.8046 137.792L137.37 87.6123C137.373 87.6028 137.395 87.5992 137.408 87.5926C137.408 87.5926 137.408 87.5926 137.411 87.583C137.436 87.5699 137.454 87.5442 137.463 87.5155C137.463 87.5155 137.463 87.5155 137.466 87.506C137.475 87.4773 137.481 87.4582 137.49 87.4296L146.423 43.6911C146.446 43.5831 146.405 43.4764 146.322 43.4085L115.197 18.2357C115.197 18.2357 115.155 18.2018 115.126 18.1929C115.126 18.1929 115.126 18.1929 115.117 18.1899C115.098 18.184 115.069 18.1751 115.05 18.1691L115.031 18.1632C115.012 18.1573 114.99 18.1609 114.965 18.1741C114.965 18.1741 114.955 18.1711 114.946 18.1681L80.2907 29.4169L58.1355 0.54779C58.1355 0.54779 58.1259 0.544824 58.1164 0.541859C58.1164 0.541859 58.1003 0.526376 58.0907 0.523411C58.0812 0.520446 58.065 0.504964 58.0489 0.489483C58.0489 0.489483 58.0393 0.486516 58.0298 0.483551C58.0298 0.483551 58.0298 0.483551 58.0202 0.480586C58.0011 0.474655 57.982 0.468724 57.9725 0.465758L57.9534 0.459827C57.9343 0.453896 57.9152 0.447964 57.8902 0.461133C57.8902 0.461133 57.8902 0.461133 57.8806 0.458168L17.9107 3.53297C17.8033 3.54151 17.7097 3.60671 17.6676 3.70879L0.25408 44.8138C0.245184 44.8424 0.239253 44.8615 0.230356 44.8902ZM1.07896 45.3945L28.421 53.8851L45.9646 135.405L1.07896 45.3945ZM136.268 86.7779L109.69 78.5247L119.199 69.551L136.268 86.7779ZM119.615 69.1565L128.413 60.8522L136.645 86.34L119.615 69.1565ZM109.06 78.3289L85.2606 70.9386L85.4164 70.6729L85.426 70.6759L85.4319 70.6568L98.2052 48.3723L118.801 69.1448L109.069 78.3319L109.06 78.3289ZM85.155 69.9635L75.9088 46.192L87.7908 37.8714L97.7725 47.9448L85.1455 69.9605L85.155 69.9635ZM84.7887 70.6036L84.6971 70.7637L54.3086 61.3271L75.4351 46.5371L84.7983 70.6066L84.7887 70.6036ZM53.6114 61.1106L53.2676 61.0038L55.414 34.7702L69.7806 32.0379L75.2086 45.9851L53.6114 61.1106ZM52.7042 60.8289L28.9052 53.4386L26.0887 40.3547L54.8344 34.8834L52.7137 60.8318L52.7042 60.8289ZM28.2749 53.2428L1.69686 44.9896L25.5245 40.4518L28.2749 53.2428ZM1.64393 44.4182L22.8649 28.0763L25.4054 39.8912L1.64393 44.4182ZM29.0418 54.0778L52.6593 61.4118L52.623 61.7984L52.2333 62.0753L52.5593 62.543L46.5794 135.617L29.0418 54.0778ZM47.1062 136.315L53.1736 62.116L53.7068 61.7476L84.401 71.279L47.1033 136.324L47.1062 136.315ZM84.9674 71.4444L108.585 78.7784L47.9385 136.029L84.9674 71.4444ZM48.5718 136.215L109.215 78.9741L136.557 87.4647L48.5718 136.215ZM137.212 86.265L128.863 60.4159L145.737 44.4834L137.212 86.265ZM145.768 43.6762L128.673 59.8126L115.582 19.2873L145.768 43.6762ZM114.941 19.1614L128.214 60.2459L119.208 68.7474L98.4948 47.8445L114.941 19.1614ZM98.0782 47.4324L88.2711 37.5389L114.137 19.4247L98.0812 47.4228L98.0782 47.4324ZM113.29 19.3189L87.867 37.1203L80.7086 29.8922L113.29 19.3189ZM87.3839 37.4623L75.6889 45.6525L70.3573 31.9343L80.0736 30.0824L87.3839 37.4623ZM79.6551 29.5755L70.1404 31.3852L58.9032 2.49296L79.6551 29.5755ZM69.5732 31.4918L55.4619 34.1778L58.0957 1.99092L69.5703 31.5014L69.5732 31.4918ZM54.8822 34.291L25.9695 39.7942L23.3695 27.699L57.5732 1.34698L54.8822 34.291ZM56.9732 1.08737L23.23 27.0693L18.2827 4.08829L56.9732 1.08737ZM17.8508 4.77092L22.732 27.4591L1.20895 44.0318L17.8508 4.77092Z" fill="#00003D"/>
</svg>
