<svg width="111" height="111" viewBox="0 0 111 111" fill="none" xmlns="http://www.w3.org/2000/svg">
<path d="M94.9548 88.8309L95.4562 89.3327L110.77 74.1322L111 74.0903L107.156 53.14L103.333 53.8508V53.9554L69.7589 56.0672V56.0253L67.1474 55.6699L69.3619 54.729L103.437 46.031L104.147 45.9683L102.121 24.4743L102.225 24.2861L83.6104 13.9573L82.0017 16.8845L63.3868 42.7275L74.3761 11.9501L74.7312 11.3019L55.7403 0.910345L55.6358 0.722168L36.6657 10.4028L38.17 13.3719L50.5381 46.9719L32.3619 14.7727L32.1112 14.1037L11.9085 21.6935L11.6996 21.6307L6.62281 42.3302L9.86109 43.1248L35.6629 52.8263L7.64653 48.1637L6.95709 47.9337L0.167137 68.4241L0 68.5496L12.8905 85.5064L15.5647 83.4783L39.5697 69.365L17.8628 89.9809L17.2778 90.3781L29.5206 108.15V108.38L50.8097 108.297V104.93L54.0898 76.4112L55.6149 107.565L55.5313 108.276L76.9876 110.576L77.1547 110.722L90.9644 94.518L88.3947 92.3226L64.5567 66.4587L94.9548 88.81V88.8309ZM18.6567 62.9879L12.4517 52.91L43.9153 58.158L18.6567 62.9879ZM14.5618 63.7824L5.22304 65.5597L8.87916 54.5408L14.5618 63.7824ZM14.8961 67.6923L12.0966 78.063L5.55731 69.4696L14.8752 67.6923H14.8961ZM19.1581 66.8769L44.3122 62.0679L15.9825 78.7321L19.179 66.8769H19.1581ZM91.821 70.6195L92.8029 82.412L67.1056 63.5106L91.821 70.6195ZM95.8114 71.7695L104.962 74.404L96.7098 82.6001L95.8114 71.7904V71.7695ZM97.2947 68.1314L104.461 60.1234L106.404 70.745L97.2739 68.1314H97.2947ZM93.1163 66.9396L68.9859 59.998L101.16 57.9698L93.1163 66.9396ZM87.371 36.8522L97.1067 43.5847L66.2072 51.4673L87.371 36.8522ZM99.7182 40.6575L90.7973 34.4895L98.6318 29.0951L99.7182 40.6575ZM88.917 31.0396L87.2874 20.418L96.7307 25.6452L88.917 31.0396ZM85.3444 33.5068L64.2643 48.0592L83.485 21.3798L85.3444 33.5068ZM57.8086 20.0835L68.8187 15.7763L58.0802 45.822L57.8086 20.0835ZM57.7668 15.9227L57.6623 6.4093L67.8577 11.971L57.7668 15.9227ZM53.86 15.5673L44.1451 10.9883L53.7555 6.07476L53.86 15.5673ZM53.9017 19.8953L54.1733 45.5292L42.808 14.6682L53.9017 19.9162V19.8953ZM47.4043 49.2928L27.7657 32.6705L31.6934 21.5262L47.4043 49.2928ZM24.5692 29.9733L17.3196 23.8261L28.1835 19.749L24.5692 29.9733ZM14.4992 26.5443L21.7487 32.6705L11.9294 37.0195L14.4992 26.5233V26.5443ZM25.0706 35.4931L44.6256 52.0527L13.8515 40.4694L25.0706 35.4931ZM36.3106 90.1272L24.5483 88.9982L47.6759 67.0232L36.3106 90.1063V90.1272ZM34.472 93.8699L30.2727 102.401L23.6917 92.8453L34.472 93.8699ZM37.7939 95.9607L44.3958 104.45L33.6155 104.491L37.8148 95.9607H37.7939ZM39.6951 92.0717L51.0186 69.0723L47.2372 101.752L39.6951 92.0717ZM57.6623 69.9923L67.7532 93.6817L59.2292 101.878L57.6623 69.9923ZM69.3828 97.5079L73.1225 106.269L61.5692 105.035L69.3828 97.5079ZM76.8622 105.098L73.1434 96.358L83.8611 96.8807L76.8622 105.098ZM71.4303 92.3644L61.3811 68.7796L83.6731 92.9499L71.4303 92.3435V92.3644Z" fill="#00003D"/>
</svg>
