<svg width="120" height="130" viewBox="0 0 120 130" fill="none" xmlns="http://www.w3.org/2000/svg">
<rect width="120" height="130" fill="white"/>
<circle cx="68.0608" cy="56.5152" r="50.303" fill="white"/>
<circle cx="31.697" cy="95.3031" r="29.697" fill="#F9D52E"/>
<path d="M73.0075 28.631C73.0075 28.4729 73.0075 28.262 72.9523 28.0776C72.8418 27.7613 72.6208 27.5505 72.2616 27.4978C72.1511 27.4978 72.013 27.4715 71.9025 27.4451C71.792 27.4451 71.7091 27.4451 71.5986 27.4188C71.5434 27.4188 71.4881 27.3661 71.4605 27.3134C71.4329 27.2607 71.5157 27.2079 71.5986 27.1816C71.7091 27.1816 71.792 27.1552 71.9025 27.1289C72.0683 27.1289 72.234 27.1025 72.3721 27.0498C72.6208 26.9971 72.7865 26.8654 72.8141 26.6282C72.8418 26.391 72.8694 26.1539 72.8694 25.9167C72.8694 25.7849 72.9246 25.7059 72.9799 25.7322C73.0628 25.7322 73.0904 25.8113 73.118 25.8903C73.118 25.9694 73.1456 26.0748 73.1733 26.1802C73.1733 26.2856 73.2009 26.391 73.2285 26.4964C73.3114 26.8654 73.5324 27.0235 73.9191 27.0762C74.0849 27.0762 74.2783 27.0762 74.444 27.1289C74.5269 27.1289 74.5821 27.1289 74.665 27.1816C74.6927 27.1816 74.7479 27.2607 74.7203 27.287C74.7203 27.3134 74.665 27.3661 74.6374 27.3924C74.444 27.4451 74.223 27.4715 74.0296 27.4978C73.6981 27.5505 73.4771 27.7613 73.3943 28.0776C73.3666 28.2093 73.339 28.3674 73.3114 28.4992C73.3114 28.6046 73.3114 28.6837 73.2838 28.7891C73.2838 28.8681 73.2838 28.9472 73.1733 28.9999C73.0904 28.9999 73.0075 28.9208 73.0075 28.7627C73.0075 28.7627 73.0075 28.71 73.0075 28.6573V28.631Z" fill="#00003D"/>
<path d="M73.5367 32.6053C73.5367 32.6053 73.3378 32.4506 73.1389 32.399H72.94C72.6417 32.3474 72.3434 32.2958 72.045 32.2443C71.7715 32.1927 71.6224 32.0122 71.5726 31.7027C71.5726 31.5479 71.5478 31.3674 71.5229 31.2127C71.5229 31.1353 71.5229 31.0579 71.5229 30.9806V30.8516C71.5229 30.8516 71.498 30.6195 71.4732 30.5164C71.4483 30.3358 71.3489 30.1811 71.2494 30.1295C71.1748 30.0779 71.0754 30.0779 71.0008 30.1295C70.9014 30.1811 70.777 30.31 70.7273 30.439C70.7025 30.5421 70.6776 30.6711 70.6527 30.7743C70.6527 30.8258 70.6527 30.8774 70.6527 30.9032V31.0579C70.603 31.1869 70.5782 31.3416 70.5533 31.4706C70.4538 31.909 70.1804 32.1927 69.7328 32.3474C69.4594 32.4248 69.161 32.399 68.9373 32.3732H68.8378C68.8378 32.3732 68.7632 32.3732 68.7384 32.3732C68.5395 32.3732 68.3406 32.4764 68.2411 32.6053C68.1914 32.6827 68.1665 32.7859 68.1914 32.889C68.266 33.1727 68.5146 33.1985 68.6638 33.2243H68.7881C68.7881 33.2243 68.987 33.2759 69.1113 33.2759H69.2107C69.3848 33.3274 69.5588 33.3532 69.7328 33.4048C70.1555 33.5338 70.4041 33.8174 70.4538 34.2559V34.4106C70.5036 34.6943 70.5284 34.9522 70.5781 35.2359C70.5781 35.3906 70.7522 35.5196 70.9014 35.5454C70.9014 35.5454 70.9014 35.5454 70.9262 35.5454C71.0505 35.5454 71.1997 35.468 71.2743 35.339C71.324 35.2359 71.3737 35.1069 71.3986 34.9522C71.3986 34.7975 71.4483 34.6685 71.4483 34.5138C71.4483 34.3848 71.4732 34.2817 71.498 34.1527C71.5726 33.6111 71.7964 33.379 72.2936 33.2759C72.3931 33.2759 72.5174 33.2501 72.6168 33.2243C72.6666 33.2243 72.7163 33.2243 72.766 33.2243C72.8157 33.2243 72.8655 33.2243 72.9152 33.2243C73.0146 33.2243 73.1141 33.2243 73.2384 33.1727C73.3378 33.1727 73.5865 33.0953 73.6362 32.8374C73.6362 32.7601 73.6362 32.6569 73.5865 32.5795L73.5367 32.6053ZM72.8157 32.8116C72.8157 32.8116 72.7163 32.8116 72.6666 32.8116C72.6168 32.8116 72.5671 32.8116 72.5174 32.8116C72.3931 32.8116 72.2688 32.8116 72.1445 32.8632C71.4732 32.9922 71.1251 33.379 71.0505 34.0753C71.0505 34.2043 71.0257 34.3332 71.0008 34.4364C71.0008 34.5911 70.9759 34.7201 70.9511 34.8748C70.9511 34.9522 70.9262 35.0038 70.9014 35.0554C70.8765 34.8233 70.8268 34.5654 70.8019 34.3332V34.1785C70.7025 33.5853 70.3544 33.1727 69.7826 32.9922C69.6085 32.9406 69.4096 32.889 69.2107 32.8632H69.1113C69.1113 32.8632 68.8875 32.8116 68.7881 32.7859H68.6638C68.6638 32.7859 68.614 32.7859 68.5892 32.7601C68.614 32.7601 68.6638 32.7601 68.7135 32.7343C68.7135 32.7343 68.7632 32.7343 68.7881 32.7343H68.8627C69.1113 32.7601 69.4594 32.7859 69.8074 32.6827C70.4041 32.5022 70.777 32.0895 70.9014 31.5222C70.9262 31.3674 70.9511 31.2385 70.9759 31.0837V30.929C70.9759 30.929 71.0257 30.8258 71.0257 30.7743C71.0257 30.6969 71.0257 30.6195 71.0754 30.5421C71.0754 30.6195 71.0754 30.7227 71.1003 30.8V30.9548C71.1003 30.9548 71.1251 31.1095 71.1251 31.1869C71.1251 31.3674 71.15 31.5479 71.1748 31.7285C71.2494 32.2185 71.5229 32.528 71.9704 32.6053C72.2688 32.6569 72.592 32.7085 72.8655 32.7343H72.9898C72.9898 32.7343 72.8655 32.7601 72.8157 32.7601V32.8116Z" fill="#00003D"/>
<path d="M75.7435 32.2712C75.1461 32.2712 74.6981 31.7585 74.728 31.1497C74.728 30.5409 75.2955 30.0603 75.9526 30.0923C76.4604 30.0923 76.8785 30.573 76.9084 31.1497C76.9084 31.7906 76.4006 32.3033 75.7435 32.2712Z" fill="#00003D"/>
<path d="M23.753 87.3196C23.753 87.3196 23.943 87.3407 24.0275 87.3618C24.1542 87.3618 24.2597 87.3829 24.3864 87.404C24.7242 87.4673 24.9354 87.6785 25.0409 87.9952C25.1043 88.1852 25.1043 88.3963 25.1043 88.5652C25.1043 88.6286 25.1043 88.6497 25.1043 88.6708C25.1043 88.8186 25.1887 88.9241 25.2732 88.903C25.3787 88.8819 25.3787 88.7764 25.3787 88.6919C25.3787 88.6074 25.3787 88.5019 25.3998 88.4174C25.3998 88.2696 25.4421 88.143 25.4632 87.9952C25.5476 87.6785 25.7377 87.4673 26.0543 87.4251C26.2444 87.3829 26.4555 87.3618 26.6455 87.3196C26.6877 87.3196 26.73 87.2562 26.73 87.2351C26.73 87.1929 26.6877 87.1506 26.6666 87.1295C26.6033 87.1084 26.5399 87.0873 26.4555 87.0662C26.2866 87.0662 26.1177 87.0451 25.9488 87.024C25.5687 86.9817 25.3787 86.8128 25.2732 86.4539C25.2521 86.3484 25.2309 86.2428 25.2309 86.1372C25.2309 86.0528 25.2098 85.9472 25.1887 85.8628C25.1887 85.7994 25.1465 85.715 25.062 85.715C24.9987 85.715 24.9565 85.7783 24.9565 85.905C24.9565 86.1372 24.9142 86.3695 24.8931 86.6017C24.8509 86.834 24.7031 86.9817 24.4709 87.024C24.3231 87.0451 24.1753 87.0662 24.0064 87.0873C23.9219 87.0873 23.8164 87.1084 23.7319 87.1295C23.6263 87.1295 23.563 87.214 23.5841 87.2562C23.6052 87.2984 23.6686 87.3407 23.7108 87.3618L23.753 87.3196Z" fill="#00003D"/>
<path d="M95.6437 26.0497C95.6437 26.0497 95.8337 26.0708 95.9181 26.0919C96.0448 26.0919 96.1504 26.113 96.277 26.1341C96.6149 26.1974 96.826 26.4086 96.9315 26.7253C96.9949 26.9153 96.9949 27.1264 96.9949 27.2953C96.9949 27.3587 96.9949 27.3798 96.9949 27.4009C96.9949 27.5487 97.0793 27.6542 97.1638 27.6331C97.2694 27.612 97.2694 27.5065 97.2694 27.422C97.2694 27.3375 97.2694 27.232 97.2905 27.1475C97.2905 26.9997 97.3327 26.8731 97.3538 26.7253C97.4383 26.4086 97.6283 26.1974 97.945 26.1552C98.135 26.113 98.3461 26.0919 98.5361 26.0497C98.5784 26.0497 98.6206 25.9863 98.6206 25.9652C98.6206 25.923 98.5784 25.8808 98.5572 25.8596C98.4939 25.8385 98.4306 25.8174 98.3461 25.7963C98.1772 25.7963 98.0083 25.7752 97.8394 25.7541C97.4594 25.7118 97.2694 25.5429 97.1638 25.184C97.1427 25.0785 97.1216 24.9729 97.1216 24.8673C97.1216 24.7829 97.1004 24.6773 97.0793 24.5929C97.0793 24.5295 97.0371 24.4451 96.9527 24.4451C96.8893 24.4451 96.8471 24.5084 96.8471 24.6351C96.8471 24.8673 96.8049 25.0996 96.7838 25.3318C96.7415 25.5641 96.5937 25.7118 96.3615 25.7541C96.2137 25.7752 96.0659 25.7963 95.897 25.8174C95.8126 25.8174 95.707 25.8385 95.6225 25.8596C95.517 25.8596 95.4536 25.9441 95.4747 25.9863C95.4959 26.0285 95.5592 26.0708 95.6014 26.0919L95.6437 26.0497Z" fill="#00003D"/>
<path d="M24.1979 76.9742H24.3245C24.4301 76.9953 24.5568 77.0165 24.6623 77.0376H24.789C24.979 77.1009 25.1691 77.122 25.3591 77.1854C25.8236 77.312 26.098 77.6076 26.1402 78.0721V78.2199C26.2036 78.5155 26.2247 78.8111 26.288 79.1066C26.3092 79.2544 26.4781 79.4233 26.6258 79.4445C26.6258 79.4445 26.647 79.4445 26.6681 79.4445C26.8159 79.4445 26.9637 79.36 27.0481 79.2333C27.1114 79.1066 27.1537 78.98 27.1959 78.8111C27.217 78.6633 27.2381 78.4944 27.2592 78.3466C27.2592 78.2199 27.2804 78.0932 27.3015 77.9665C27.3859 77.3965 27.6182 77.1643 28.1671 77.0376C28.2938 77.0165 28.3993 76.9953 28.526 76.9953C28.5894 76.9953 28.6316 76.9953 28.6949 76.9953C28.7371 76.9953 28.8005 76.9953 28.8427 76.9953C28.9483 76.9953 29.075 76.9953 29.1805 76.9531C29.2861 76.9531 29.5606 76.8898 29.6239 76.5942C29.645 76.5097 29.6239 76.4042 29.5817 76.3408C29.4972 76.2353 29.3705 76.1719 29.1383 76.1297H28.9061C28.5894 76.0664 28.2515 76.0241 27.9349 75.9608C27.6393 75.8975 27.4704 75.7286 27.407 75.3908C27.3859 75.2219 27.3648 75.0318 27.3437 74.8629C27.3437 74.7785 27.3437 74.694 27.3226 74.6096V74.4618C27.3015 74.3351 27.2804 74.2295 27.2804 74.1029C27.2592 73.9128 27.1537 73.7651 27.027 73.7017C26.9425 73.6595 26.837 73.6595 26.7525 73.7017C26.647 73.7651 26.5203 73.8917 26.4569 74.0395C26.4147 74.1662 26.3936 74.2929 26.3936 74.3984C26.3936 74.4407 26.3936 74.504 26.3936 74.5462V74.7151C26.3514 74.8629 26.3303 75.0107 26.288 75.1374C26.1825 75.6019 25.8869 75.8975 25.3802 76.0664C25.0635 76.1719 24.7468 76.1297 24.4934 76.1086H24.3879C24.3879 76.1086 24.3034 76.1086 24.2823 76.1086C24.0501 76.1086 23.8389 76.2142 23.7334 76.3408C23.67 76.4253 23.6489 76.5309 23.67 76.6364C23.7545 76.932 24.0289 76.9742 24.1979 76.9953V76.9742ZM24.3034 76.5097C24.3034 76.5097 24.3456 76.5097 24.3879 76.5097H24.4723C24.7468 76.5309 25.1268 76.5731 25.528 76.4464C26.1825 76.2353 26.5836 75.8341 26.7314 75.2007C26.7736 75.053 26.7948 74.884 26.8159 74.7363V74.5885C26.8159 74.5885 26.8581 74.4829 26.8581 74.4196C26.8581 74.3351 26.8792 74.2507 26.9003 74.1662C26.9003 74.2718 26.9003 74.3562 26.9214 74.4618V74.6096C26.9214 74.6096 26.9425 74.7785 26.9637 74.8418C26.9637 75.0318 26.9848 75.2219 27.027 75.4119C27.1114 75.9186 27.407 76.2564 27.8926 76.3408C28.2304 76.4042 28.5682 76.4464 28.8849 76.4886H29.0327C29.0327 76.4886 28.9061 76.5097 28.8216 76.5309C28.7583 76.5309 28.716 76.5309 28.6527 76.5309C28.6105 76.5309 28.5471 76.5309 28.5049 76.5309C28.3782 76.5309 28.2304 76.552 28.1038 76.5942C27.3648 76.742 26.9848 77.1431 26.8792 77.8821C26.8792 78.0088 26.837 78.1354 26.837 78.2832C26.837 78.431 26.7948 78.5788 26.7736 78.7266C26.7736 78.8111 26.7525 78.8744 26.7314 78.9377C26.6892 78.6844 26.6681 78.431 26.6258 78.1777V78.0299C26.5203 77.3965 26.1402 76.9531 25.5069 76.7842C25.2957 76.7209 25.0846 76.6787 24.8946 76.6575H24.7679C24.6412 76.6153 24.5145 76.5942 24.409 76.5731H24.2612C24.2612 76.5731 24.1979 76.552 24.1767 76.5309C24.219 76.5309 24.2612 76.5097 24.3245 76.5097H24.3034Z" fill="#00003D"/>
<path d="M94.61 16.2323H94.7366C94.8422 16.2534 94.9689 16.2745 95.0745 16.2956H95.2011C95.3911 16.359 95.5812 16.3801 95.7712 16.4434C96.2357 16.5701 96.5101 16.8657 96.5524 17.3302V17.478C96.6157 17.7735 96.6368 18.0691 96.7002 18.3647C96.7213 18.5125 96.8902 18.6814 97.038 18.7025C97.038 18.7025 97.0591 18.7025 97.0802 18.7025C97.228 18.7025 97.3758 18.6181 97.4602 18.4914C97.5236 18.3647 97.5658 18.238 97.608 18.0691C97.6291 17.9213 97.6502 17.7524 97.6713 17.6046C97.6713 17.478 97.6925 17.3513 97.7136 17.2246C97.798 16.6545 98.0303 16.4223 98.5792 16.2956C98.7059 16.2745 98.8114 16.2534 98.9381 16.2534C99.0015 16.2534 99.0437 16.2534 99.107 16.2534C99.1493 16.2534 99.2126 16.2534 99.2548 16.2534C99.3604 16.2534 99.4871 16.2534 99.5926 16.2112C99.6982 16.2112 99.9727 16.1478 100.036 15.8523C100.057 15.7678 100.036 15.6622 99.9938 15.5989C99.9093 15.4933 99.7826 15.43 99.5504 15.3878H99.3182C99.0015 15.3244 98.6637 15.2822 98.347 15.2189C98.0514 15.1555 97.8825 14.9866 97.8191 14.6488C97.798 14.4799 97.7769 14.2899 97.7558 14.121C97.7558 14.0365 97.7558 13.9521 97.7347 13.8676V13.7198C97.7136 13.5932 97.6925 13.4876 97.6925 13.3609C97.6713 13.1709 97.5658 13.0231 97.4391 12.9598C97.3547 12.9175 97.2491 12.9175 97.1646 12.9598C97.0591 13.0231 96.9324 13.1498 96.8691 13.2976C96.8268 13.4243 96.8057 13.5509 96.8057 13.6565C96.8057 13.6987 96.8057 13.7621 96.8057 13.8043V13.9732C96.7635 14.121 96.7424 14.2688 96.7002 14.3955C96.5946 14.8599 96.299 15.1555 95.7923 15.3244C95.4756 15.43 95.1589 15.3878 94.9055 15.3667H94.8C94.8 15.3667 94.7155 15.3667 94.6944 15.3667C94.4622 15.3667 94.251 15.4722 94.1455 15.5989C94.0821 15.6833 94.061 15.7889 94.0821 15.8945C94.1666 16.1901 94.4411 16.2323 94.61 16.2534V16.2323ZM94.7155 15.7467C94.7155 15.7467 94.7578 15.7467 94.8 15.7467H94.8844C95.1589 15.7678 95.5389 15.81 95.9401 15.6833C96.5946 15.4722 96.9957 15.0711 97.1435 14.4377C97.1858 14.2899 97.2069 14.121 97.228 13.9732V13.8254C97.228 13.8254 97.2702 13.7198 97.2702 13.6565C97.2702 13.572 97.2913 13.4876 97.3124 13.4031C97.3124 13.5087 97.3124 13.5932 97.3335 13.6987V13.8465C97.3335 13.8465 97.3547 14.0154 97.3758 14.0788C97.3758 14.2688 97.3969 14.4588 97.4391 14.6488C97.5236 15.1555 97.8191 15.4933 98.3047 15.5778C98.6425 15.6411 98.9804 15.6833 99.2971 15.7256H99.4448C99.4448 15.7256 99.3182 15.7467 99.2337 15.7678C99.1704 15.7678 99.1281 15.7678 99.0648 15.7678C99.0226 15.7678 98.9592 15.7678 98.917 15.7678C98.7903 15.7678 98.6425 15.7889 98.5159 15.8311C97.7769 15.9789 97.3969 16.3801 97.2913 17.119C97.2913 17.2457 97.2491 17.3724 97.2491 17.5202C97.2491 17.668 97.2069 17.8158 97.1858 17.9636C97.1858 18.048 97.1646 18.1113 97.1435 18.1747C97.1013 17.9213 97.0802 17.668 97.038 17.4146V17.2668C96.9324 16.6334 96.5524 16.1901 95.919 16.0212C95.7078 15.9578 95.4967 15.9156 95.3067 15.8945H95.18C95.0533 15.8523 94.9267 15.8311 94.8211 15.81H94.6733C94.6733 15.81 94.61 15.7889 94.5889 15.7678C94.6311 15.7678 94.6733 15.7467 94.7366 15.7467H94.7155Z" fill="#00003D"/>
<path d="M24.3446 92.6822C24.0491 92.7034 23.7746 92.9989 23.8168 93.2523C23.8379 93.5057 24.1124 93.7379 24.3869 93.7379C24.6824 93.7379 24.9147 93.4634 24.8936 93.1467C24.8936 92.8723 24.6402 92.6611 24.3446 92.6822Z" fill="#00003D"/>
<path d="M100.669 32.8902C100.373 32.9114 100.099 33.2069 100.141 33.4603C100.162 33.7137 100.437 33.9459 100.711 33.9459C101.007 33.9459 101.239 33.6714 101.218 33.3547C101.218 33.0803 100.964 32.8691 100.669 32.8902Z" fill="#00003D"/>
<path d="M32.622 84.4694C32.3264 84.4905 32.0519 84.786 32.0942 85.0394C32.1153 85.2928 32.3897 85.525 32.6642 85.525C32.9598 85.525 33.192 85.2505 33.1709 84.9338C33.1709 84.6594 32.9176 84.4482 32.622 84.4694Z" fill="#00003D"/>
<path d="M89.6689 8.94799C89.3733 8.9691 89.0988 9.26468 89.141 9.51804C89.1621 9.7714 89.4366 10.0036 89.7111 10.0036C90.0067 10.0036 90.2389 9.72917 90.2178 9.41247C90.2178 9.13801 89.9644 8.92688 89.6689 8.94799Z" fill="#00003D"/>
<path d="M105.378 18.8713C105.082 18.8924 104.808 19.188 104.85 19.4414C104.871 19.6947 105.146 19.927 105.42 19.927C105.716 19.927 105.948 19.6525 105.927 19.3358C105.927 19.0613 105.673 18.8502 105.378 18.8713Z" fill="#00003D"/>
<path d="M20.756 83.7092C21.0516 83.7092 21.2838 83.4347 21.2627 83.118C21.2627 82.8436 21.0094 82.6324 20.7138 82.6536C20.4182 82.6747 20.1437 82.9703 20.186 83.2236C20.2071 83.477 20.4815 83.7092 20.756 83.7092Z" fill="#00003D"/>
<path d="M76.3753 42.2614L76.1584 40.9981C76.1584 40.9981 76.1313 40.8333 76.1042 40.751L76.0499 40.5587L70.8991 37.5379C70.0858 37.071 69.2725 36.6042 68.4863 36.1099C67.2121 35.3409 65.9109 34.5445 64.6367 33.7756L64.3927 33.6383C64.0945 33.446 63.7692 33.3636 63.4439 33.3636C60.9498 33.446 58.4557 33.501 55.9616 33.5559H55.7176C55.4736 33.5559 55.2567 33.6383 55.0398 33.7756C51.6511 35.8078 48.2895 37.84 44.9007 39.8722L43.0844 40.9707C43.0844 40.9707 42.9217 41.053 42.8404 41.108C42.6235 41.2178 42.5151 41.41 42.488 41.6572L42 49.072L42.1627 49.2368C42.1627 49.2368 42.3524 49.429 42.4338 49.5114C42.9217 49.9233 43.4097 50.3352 43.8977 50.7472L46.0123 52.5047C47.3135 53.5758 48.5877 54.6468 49.889 55.7178C50.7836 56.4593 51.6782 57.2008 52.5728 57.9422L54.6874 59.6998C56.0158 60.7983 57.3442 61.8968 58.6725 62.9953L59.8383 63.9839C60.1636 64.2585 60.4889 64.5332 60.8142 64.7803C60.9769 64.9176 61.1395 65 61.2751 65C61.4377 65 61.6275 64.8902 61.8173 64.6979C61.8715 64.6155 61.9528 64.5606 62.007 64.4782L73.3932 50.4726C74.4505 49.1544 75.5077 47.8362 76.5921 46.5455C76.8903 46.1885 76.9717 45.8589 76.8632 45.3646C76.6735 44.3485 76.4837 43.3324 76.321 42.3163L76.3753 42.2614ZM76.1042 45.0625C74.3962 44.2387 72.7425 43.4422 71.1431 42.6458L70.4924 42.3163C70.628 41.6023 70.8177 40.9432 71.0075 40.2566C71.1159 39.8172 71.2244 39.4053 71.3328 38.9659C71.3328 38.911 71.387 38.8286 71.4142 38.7737C71.4955 38.8011 71.5768 38.8286 71.631 38.8561C72.0919 39.1307 72.5528 39.4053 73.0136 39.6799C73.6914 40.0644 74.342 40.4763 75.0198 40.8608C75.2366 40.9981 75.3451 41.1354 75.3993 41.3826C75.5348 42.1515 75.6975 42.9205 75.8331 43.7169L76.077 44.9527C76.077 44.9527 76.077 45.0351 76.077 45.0625H76.1042ZM64.3114 59.8646C65.0976 58.4091 65.8838 56.9536 66.6428 55.4981C66.8326 55.1136 67.0766 54.8116 67.3477 54.5644C68.8116 53.2462 70.3027 51.928 71.7666 50.6099L73.4745 49.072L73.1492 49.4839C72.4443 50.3627 71.7124 51.214 71.0075 52.0928C70.0316 53.2737 69.0827 54.4546 68.1068 55.6354L63.5523 61.2377L64.3114 59.8371V59.8646ZM60.5973 62.803C58.4557 60.2765 55.7989 56.9536 55.1483 56.0474C58.7539 55.7453 62.3324 55.4157 65.8838 55.1137C65.8566 55.251 65.7753 55.3608 65.694 55.4981L65.6127 55.6354C65.3687 56.1023 65.1247 56.5417 64.8807 57.0085C64.6638 57.4205 64.4469 57.8049 64.23 58.2169C63.715 59.178 63.227 60.1118 62.7119 61.0729L61.5733 63.1875C61.5733 63.1875 61.4377 63.4621 61.3293 63.5994C61.3293 63.5994 61.1938 63.4896 61.1395 63.4347C61.004 63.2699 60.8413 63.1051 60.7058 62.9129H61.1395L60.5973 62.7756V62.803ZM53.6572 55.7727C53.847 55.8826 53.9825 55.9924 54.091 56.1023C55.5278 57.8599 56.9375 59.59 58.3743 61.3475L58.8623 61.9517C57.6966 60.9905 56.5038 60.0019 55.338 59.0407L49.889 54.5369C48.7232 53.5483 47.5304 52.5871 46.3647 51.5985C48.8046 52.9991 51.2444 54.3722 53.6572 55.7727ZM59.5672 54.8116L57.5881 54.9763C56.8291 55.0313 56.07 55.1136 55.3109 55.1686C55.1754 55.1686 55.0669 55.1686 54.9314 55.1686C55.1754 53.8779 56.558 47.9735 56.8833 46.9849H63.6607C64.0403 47.8362 65.7482 52.9167 66.1006 54.2074C65.9922 54.2623 65.8295 54.2074 65.6669 54.2349C63.6336 54.4271 61.6004 54.5919 59.5672 54.7841V54.8116ZM64.5283 46.6828C65.8838 45.7491 67.2664 44.8428 68.6218 43.9091L69.9231 43.0303C70.6551 43.3049 71.387 43.6619 72.0648 44.019C72.3359 44.1563 72.607 44.2936 72.9052 44.4309C73.1763 44.5682 73.4474 44.7055 73.7456 44.8154C74.4233 45.1174 75.1011 45.447 75.7788 45.8589C75.7788 45.8864 75.7517 45.9138 75.7246 45.9413C75.1282 46.5455 68.0525 52.8343 66.8868 53.8229C66.8868 53.8229 66.8868 53.8229 66.8868 53.7955C66.4802 52.7519 64.8265 47.6439 64.5554 46.6828H64.5283ZM70.5737 38.4441C70.5737 38.4441 70.5738 38.6364 70.5195 38.7462C70.4111 39.1856 70.3027 39.625 70.1671 40.0644C70.0044 40.6686 69.8689 41.2453 69.7062 41.8494C69.6249 42.1241 69.5165 42.3163 69.2725 42.4536C67.5374 43.607 65.8295 44.7604 64.1216 45.9413C63.8776 46.1061 63.6336 46.1885 63.3083 46.1885C61.1395 46.1885 58.9436 46.1885 56.7748 46.1885C56.4766 46.1885 56.2598 46.1335 55.9887 45.9962C54.5518 45.2822 53.0879 44.5682 51.6511 43.8542C51.2987 43.6894 50.9462 43.5246 50.5938 43.3599C50.404 43.2775 50.2956 43.1676 50.2414 42.9754C49.9161 42.0966 49.5636 41.2178 49.2383 40.339L48.6419 38.7462C48.6419 38.7462 48.6419 38.6913 48.6419 38.6364L48.7232 38.5815C48.7232 38.5815 48.9672 38.4167 49.0757 38.3618L50.8107 37.3182C52.2746 36.4394 53.7114 35.5606 55.1483 34.6818C55.4736 34.4896 55.7718 34.3797 56.1513 34.3797C58.4557 34.3248 60.8142 34.2699 63.1728 34.1875C63.5523 34.1875 63.9047 34.2699 64.23 34.4896C65.4229 35.2311 66.6157 35.9451 67.8085 36.6866L69.652 37.8125C69.8689 37.9498 70.0858 38.0871 70.3298 38.2519L70.5466 38.3892C70.5466 38.3892 70.5466 38.4167 70.5466 38.4441H70.5737ZM43.5181 48.6051C43.5181 48.6051 43.5995 48.5502 43.6537 48.5227C45.1176 47.4517 46.6087 46.4082 48.0726 45.3646L49.2112 44.5407C49.2112 44.5407 49.3196 44.4583 49.3739 44.4309C49.5094 44.3485 49.6179 44.2661 49.7263 44.1563C49.889 43.9915 50.0516 43.9915 50.3498 44.1563C50.7836 44.376 51.2173 44.5957 51.6782 44.8154L52.9795 45.447C53.8199 45.8589 54.6603 46.2708 55.5278 46.6828C55.6362 46.7377 55.7447 46.8201 55.8802 46.875L55.9887 46.9299V47.0947C55.338 49.7311 54.7145 52.34 54.091 54.9214C54.091 54.9214 54.091 54.9489 54.091 54.9763C52.8439 54.3722 45.4429 50.1705 43.491 48.9896C43.4368 48.9621 43.3555 48.9072 43.3013 48.8523C43.3555 48.7699 43.4368 48.715 43.5453 48.6601L43.5181 48.6051ZM49.4823 43.25C48.8046 43.8267 44.0875 47.232 42.8946 47.9735L43.0302 45.9138C43.1115 44.6506 43.2199 43.3873 43.3013 42.1241C43.3013 41.8769 43.3826 41.7671 43.5724 41.6572C44.5754 41.053 45.6056 40.4763 46.6087 39.8722L47.8557 39.1307C47.8557 39.1307 47.8828 39.1582 47.8828 39.1856C48.3979 40.5313 48.913 41.8769 49.4281 43.2226C49.4281 43.2226 49.4281 43.25 49.4281 43.2775L49.4823 43.25Z" fill="#00003D"/>
<path d="M70.8353 114.091C70.3497 114.07 69.9696 113.816 69.8007 113.415L63.5513 98.5095C63.4246 98.2139 63.5513 97.855 63.868 97.7283C63.9524 97.7072 64.0158 97.6861 64.1002 97.6861C64.3325 97.6861 64.5647 97.8339 64.6492 98.045L70.8142 112.782L75.9024 103.556C76.3035 102.817 77.0847 102.352 77.9504 102.352C78.1615 102.352 78.3726 102.373 78.5837 102.437L88.718 105.308L76.2191 75.433L75.4168 75.5386C74.2133 75.7075 73.0521 76.2142 72.102 76.9954L65.7681 82.2103C65.4303 82.4847 65.0714 82.7381 64.6914 82.9492L64.5014 83.0548L51.7069 113.394C51.538 113.795 51.1579 114.049 50.7357 114.07C50.2923 114.07 49.9123 113.859 49.7223 113.5L44.3807 103.788L43.6206 103.534L32.9374 106.469C32.8319 106.49 32.7263 106.511 32.6207 106.511C32.304 106.511 32.0084 106.385 31.7973 106.131C31.5229 105.815 31.4384 105.371 31.6073 104.97L44.0218 75.2852L37.6034 74.6729C33.8664 74.314 30.8895 71.3371 30.5305 67.6001L29.7494 59.4293C29.6227 58.0992 29.0949 56.8535 28.2503 55.819L23.0354 49.4851C20.6497 46.5926 20.6497 42.37 23.0354 39.4775L28.2503 33.1436C29.0949 32.1091 29.6227 30.8634 29.7494 29.5333L30.5305 21.3626C30.8895 17.6256 33.8664 14.6486 37.6034 14.2897L45.7741 13.5085C47.1042 13.3819 48.3499 12.8752 49.3845 12.0095L55.7184 6.79461C57.1118 5.63339 58.9064 5 60.7221 5C62.5379 5 64.3325 5.63339 65.7259 6.79461L72.0598 12.0095C73.0944 12.854 74.34 13.3819 75.6701 13.5085L83.8409 14.2897C87.5779 14.6486 90.5548 17.6256 90.9137 21.3626L91.6949 29.5333C91.8216 30.8634 92.3283 32.1091 93.1939 33.1436L98.4089 39.4775C100.795 42.3911 100.795 46.5926 98.4089 49.4851L93.1939 55.819C92.3494 56.8535 91.8216 58.0992 91.6949 59.4293L90.9137 67.6001C90.5548 71.3371 87.5779 74.314 83.8409 74.6729L77.4225 75.2852L89.837 104.949C90.0059 105.35 89.9214 105.793 89.647 106.11C89.4358 106.342 89.1402 106.49 88.8235 106.49C88.718 106.49 88.6124 106.49 88.528 106.448L78.2248 103.534H77.7603L77.0636 103.914L71.7642 113.458C71.5742 113.816 71.2153 114.028 70.8142 114.028L70.8353 114.091ZM43.5784 102.352C44.4229 102.352 45.2041 102.817 45.6052 103.556L50.6935 112.782L62.7701 83.9204L60.7432 84.0049C58.9275 84.0049 57.154 83.3715 55.7606 82.2103L49.4267 76.9954C48.4766 76.2142 47.3365 75.7075 46.1119 75.5386L45.3096 75.433L32.8107 105.308L42.945 102.458C43.1561 102.394 43.3672 102.373 43.5784 102.373V102.352ZM60.7644 6.20344C59.2231 6.20344 57.703 6.75238 56.5206 7.72358L50.1867 12.9385C48.9622 13.9519 47.5054 14.5431 45.943 14.6909L37.7723 15.4721C34.6053 15.7887 32.0718 18.3012 31.7551 21.4893L30.9739 29.66C30.8261 31.2224 30.2138 32.7003 29.2215 33.9037L24.0066 40.2376C21.9798 42.7078 21.9798 46.2759 24.0066 48.7462L29.2215 55.0801C30.235 56.3046 30.8261 57.7614 30.9739 59.3238L31.7551 67.4945C32.0718 70.6615 34.5842 73.195 37.7723 73.5117L45.943 74.2929C47.5054 74.4407 48.9833 75.053 50.1867 76.0453L56.5206 81.2602C57.703 82.2525 59.2231 82.7803 60.7644 82.7803C62.3056 82.7803 63.8257 82.2314 65.0081 81.2602L71.342 76.0453C72.5665 75.0318 74.0233 74.4407 75.5857 74.2929L83.7564 73.5117C86.9234 73.195 89.4569 70.6826 89.7736 67.4945L90.5548 59.3238C90.7026 57.7614 91.3149 56.2835 92.3072 55.0801L97.5221 48.7462C99.549 46.2759 99.549 42.7078 97.5221 40.2376L92.3072 33.9037C91.2938 32.6792 90.7026 31.2224 90.5548 29.66L89.7736 21.4893C89.4569 18.3223 86.9445 15.7887 83.7564 15.4721L75.5857 14.6909C74.0233 14.5431 72.5454 13.9308 71.342 12.9385L65.0081 7.72358C63.8257 6.73127 62.3056 6.20344 60.7644 6.20344Z" fill="#00003D"/>
<path d="M60.7647 69.2259C47.1468 69.2259 36.0625 58.1415 36.0625 44.5236C36.0625 34.8117 41.7841 25.9653 50.6516 21.9749C50.736 21.9327 50.7994 21.9327 50.8838 21.9327C51.1161 21.9327 51.3272 22.0805 51.4328 22.2916C51.4961 22.4394 51.4961 22.6083 51.4328 22.7561C51.3694 22.9039 51.2639 23.0306 51.1161 23.0939C42.6709 26.8732 37.2237 35.2972 37.2237 44.5447C37.2237 57.5081 47.7802 68.0435 60.7225 68.0435C73.6648 68.0435 84.2213 57.487 84.2213 44.5447C84.2213 31.6025 73.6648 21.046 60.7225 21.046C59.7091 21.046 58.6956 21.1093 57.7033 21.236C57.3444 21.236 57.0911 21.046 57.0488 20.7293C57.0277 20.5815 57.0488 20.4126 57.1544 20.2859C57.26 20.1592 57.3866 20.0748 57.5555 20.0537C58.6112 19.927 59.6668 19.8425 60.7225 19.8425C74.3404 19.8425 85.4247 30.9269 85.4247 44.5447C85.4247 58.1626 74.3404 69.247 60.7225 69.247L60.7647 69.2259Z" fill="#00003D"/>
</svg>
