<svg width="142" height="142" viewBox="0 0 142 142" fill="none" xmlns="http://www.w3.org/2000/svg">
<path d="M141.468 45.6337C141.428 45.521 141.316 45.4534 141.199 45.4559L88.9899 49.5232L93.7297 23.1238C93.7477 23.0098 93.6957 22.8915 93.5811 22.8444C93.4752 22.7941 93.3476 22.8201 93.2621 22.9093L75.8243 43.2887L45.9383 0.300369C45.8751 0.20557 45.7432 0.164637 45.6304 0.204866C45.5177 0.245095 45.4501 0.357198 45.4525 0.473661L49.5199 52.683L23.1205 47.9431C23.0065 47.9251 22.8882 47.9771 22.841 48.0917C22.7908 48.1976 22.8168 48.3252 22.9029 48.4021L43.2823 65.8399L0.297052 95.7346C0.20225 95.7977 0.16132 95.9297 0.201549 96.0424C0.241777 96.1552 0.353881 96.2227 0.470343 96.2203L52.6796 92.153L47.9398 118.552C47.9218 118.666 47.9738 118.785 48.0915 118.84C48.1621 118.874 48.229 118.87 48.2897 118.848C48.3331 118.832 48.3734 118.808 48.3988 118.77L65.8365 98.3906L95.7343 141.384C95.7975 141.479 95.9294 141.52 96.0422 141.48C96.155 141.44 96.2225 141.328 96.2201 141.211L92.1527 89.0019L118.552 93.7417C118.552 93.7417 118.643 93.7485 118.686 93.7331C118.747 93.7114 118.807 93.6606 118.835 93.6018C118.885 93.4959 118.859 93.3683 118.77 93.2827L98.3903 75.845L141.384 45.9472C141.479 45.884 141.52 45.7521 141.48 45.6393L141.468 45.6337ZM70.8669 70.1471L65.8755 56.1563L76.5856 58.0846L70.8669 70.1471ZM77.065 58.3047L85.3371 65.3757L71.3463 70.3671L77.065 58.3047ZM70.3725 70.3234L58.31 64.6047L65.3811 56.3327L70.3725 70.3234ZM70.1437 70.8059L56.153 75.7974L58.0813 65.0872L70.1437 70.8059ZM70.3201 71.3004L64.6014 83.3628L56.3294 76.2918L70.3201 71.3004ZM70.8026 71.5291L75.794 85.5199L65.0839 83.5916L70.8026 71.5291ZM71.297 71.3527L83.3595 77.0715L76.2884 85.3435L71.297 71.3527ZM71.5258 70.8702L85.5166 65.8788L83.5882 76.589L71.5258 70.8702ZM85.6754 64.9812L77.3025 57.8191L80.544 50.9817L86.6256 59.724L85.6841 64.9781L85.6754 64.9812ZM87.0491 60.3356L89.5178 63.8842L86.1958 65.0694L87.0491 60.3356ZM80.9747 50.6814L88.3467 50.1047L86.7529 58.9844L80.9747 50.6814ZM80.0615 50.753L76.8256 57.5786L65.981 55.6298L69.4527 51.5752L80.0702 50.7499L80.0615 50.753ZM69.9274 51.0147L75.793 44.1603L80.0128 50.2326L69.9274 51.0147ZM65.5691 55.2976L64.3839 51.9755L68.6938 51.6406L65.5691 55.2976ZM65.0747 55.474L60.3409 54.6206L63.8895 52.1519L65.0747 55.474ZM64.9779 55.9974L57.8158 64.3704L50.9815 61.1375L59.7238 55.0559L64.9779 55.9974ZM50.6781 60.6982L50.1014 53.3262L58.9811 54.92L50.6781 60.6982ZM50.7497 61.6113L57.587 64.8529L55.6382 75.6975L51.5836 72.2258L50.7583 61.6082L50.7497 61.6113ZM51.0114 71.7455L44.157 65.8798L50.2293 61.6601L51.0114 71.7455ZM55.2943 76.1037L51.9722 77.2889L51.6373 72.9791L55.2943 76.1037ZM55.4707 76.5981L54.6173 81.3319L52.1486 77.7833L55.4707 76.5981ZM55.9941 76.6949L64.367 83.8571L61.1255 90.6944L55.0439 81.9521L55.9854 76.698L55.9941 76.6949ZM60.6918 90.9861L53.3198 91.5628L54.9136 82.6831L60.6918 90.9861ZM61.608 90.9232L64.8495 84.0858L75.6941 86.0346L72.2224 90.0892L61.6049 90.9145L61.608 90.9232ZM71.7422 90.6614L65.8765 97.5159L61.6568 91.4436L71.7422 90.6614ZM76.1004 86.3786L77.2856 89.7006L72.9758 90.0356L76.1004 86.3786ZM76.5948 86.2022L81.3286 87.0556L77.78 89.5242L76.5948 86.2022ZM76.6916 85.6788L83.8538 77.3058L90.6824 80.5504L81.9401 86.632L76.686 85.6905L76.6916 85.6788ZM90.9827 80.9811L91.5595 88.3531L82.6798 86.7593L90.9827 80.9811ZM90.9112 80.0679L84.0738 76.8264L86.0226 65.9818L90.0772 69.4535L90.9025 80.071L90.9112 80.0679ZM90.6581 69.9307L97.5126 75.7964L91.4402 80.0161L90.6581 69.9307ZM86.3753 65.5724L89.6973 64.3873L90.0322 68.6971L86.3753 65.5724ZM90.0327 63.7103L87.1795 59.6046L88.8906 50.0671L139.265 46.1459L90.0327 63.7103ZM80.9259 50.161L92.86 24.9888L88.4404 49.5726L80.9259 50.161ZM92.3892 24.7656L80.4552 49.9379L76.1543 43.7478L92.3892 24.7656ZM69.1858 51.0739L64.2014 51.4638L46.637 2.23152L75.4865 43.7123L69.1858 51.0739ZM46.1426 2.40791L63.707 51.6402L59.6013 54.4934L50.0638 52.7823L46.1426 2.40791ZM50.1577 60.7469L24.9854 48.8129L49.5693 53.2324L50.1577 60.7469ZM24.7623 49.2836L49.9346 61.2177L43.7445 65.5185L24.7623 49.2836ZM51.0706 72.487L51.4605 77.4715L2.22821 95.0358L43.709 66.1863L51.0706 72.487ZM2.40459 95.5302L51.6368 77.9659L54.49 82.0715L52.7789 91.6091L2.40459 95.5302ZM60.7436 91.5151L48.8096 116.687L53.2291 92.1036L60.7436 91.5151ZM49.2803 116.911L61.2144 91.7383L65.5152 97.9283L49.2803 116.911ZM72.4837 90.6022L77.4682 90.2124L95.0325 139.445L66.183 97.9639L72.4837 90.6022ZM95.5269 139.268L77.9626 90.036L82.0682 87.1828L91.6058 88.8939L95.5269 139.268ZM91.5118 80.9292L116.684 92.8633L92.1003 88.4437L91.5118 80.9292ZM116.907 92.3925L91.735 80.4585L97.925 76.1577L116.907 92.3925ZM90.5989 69.1891L90.2091 64.2047L139.441 46.6403L97.9605 75.4899L90.5989 69.1891Z" fill="#00003D"/>
</svg>
