<svg width="164" height="126" viewBox="0 0 164 126" fill="none" xmlns="http://www.w3.org/2000/svg">
<path opacity="0.4" d="M129.085 16.2654C129.085 16.2654 129.081 16.2619 129.079 16.2587L128.708 15.8442L48.4295 0.116609L47.9308 0.360626C47.9308 0.360626 47.9246 0.363609 47.9214 0.365775L0.862578 23.3271L65.4975 125.742L164 55.288L129.085 16.2654ZM118.667 69.0295L118.503 48.2133L139.43 52.3132L118.667 69.0295ZM139.164 56.6627L132.006 73.6635L120.778 71.4639L139.164 56.6627ZM50.7601 34.9415L79.2404 40.5212L62.2508 58.7302L50.7601 34.9415ZM79.7257 44.7252L66.7385 111.016L63.4799 62.136L79.7257 44.7252ZM82.8937 45.3459L91.3686 67.5998L69.9066 111.636L82.8937 45.3459ZM93.7923 64.9082L84.9294 41.6358L113.408 47.2152L93.7923 64.9082ZM85.309 38.4401L103.415 15.82L114.324 44.1245L85.309 38.4401ZM51.0786 31.7339L71.8616 9.63825L80.0935 37.4183L51.0786 31.7339ZM24.7383 29.8435L45.6654 33.9434L37.6588 53.1588L24.7383 29.8435ZM34.7851 54.6167L23.559 52.4173L23.3446 33.9734L34.7864 54.6169L34.7851 54.6167ZM25.0107 26.6268L46.9466 5.65755L46.3434 30.8062L25.0107 26.6268ZM48.0218 36.6794L60.233 61.9606L63.6988 113.96L39.6158 56.8543L48.0218 36.6794ZM94.4417 68.6626L115.29 49.8595L115.461 71.7149L71.6102 115.51L94.4417 68.6626ZM119.059 45.0522L127.99 21.5351L140.392 49.2316L119.059 45.0522ZM116.862 41.7453L106.461 14.7558L125.681 18.5213L116.861 41.7451L116.862 41.7453ZM85.2406 33.3669L89.5361 11.4414L100.994 13.6862L85.2403 33.3682L85.2406 33.3669ZM82.0725 32.7462L74.9102 8.5746L86.3683 10.8194L82.0725 32.7462ZM49.6255 28.5727L50.2221 3.73786L69.4437 7.50364L49.6269 28.573L49.6255 28.5727ZM21.1398 25.8685L8.1879 23.331L40.0664 7.77572L21.1398 25.8685ZM20.0574 28.9265L20.2803 48.061L6.53028 26.2763L20.0561 28.9262L20.0574 28.9265ZM36.7121 58.2642L56.8426 105.996L25.3097 56.0303L36.7134 58.2645L36.7121 58.2642ZM117.617 74.1147L129.021 76.3488L80.9633 110.723L117.617 74.1147ZM144.112 53.2306L157.638 55.8805L136.686 70.8664L144.111 53.2303L144.112 53.2306ZM144.263 49.99L133.562 26.0929L157.215 52.5274L144.263 49.99Z" fill="#F9D52E"/>
</svg>
